# MagicaVoxel @ ephtracy

# material
mtllib body_002.mtl
usemtl palette

# normals
vn -1 0 0
vn 1 0 0
vn 0 0 1
vn 0 0 -1
vn 0 -1 0
vn 0 1 0

# texcoords
vt 0.916016 0.5
vt 0.939453 0.5
vt 0.943359 0.5
vt 0.947266 0.5
vt 0.970703 0.5
vt 0.974609 0.5

# verts
v -2 7 1
v -2 7 -1
v -2 10 -0
v -2 10 -1
v -2 11 1
v -2 11 -0
v -2 11 -1
v -1 11 2
v -1 11 1
v -1 11 -0
v -1 12 2
v -1 12 1
v -1 12 -0
v -1 13 2
v -1 13 1
v -1 13 -0
v -1 14 2
v -1 14 1
v -1 14 -0
v 1 11 2
v 1 11 1
v 1 11 -0
v 1 12 2
v 1 12 1
v 1 12 -0
v 1 13 2
v 1 13 1
v 1 13 -0
v 1 14 2
v 1 14 1
v 1 14 -0
v 2 7 1
v 2 7 -0
v 2 7 -1
v 2 8 -0
v 2 8 -1
v 2 9 1
v 2 9 -0
v 2 10 1
v 2 10 -0
v 2 11 1
v 2 11 -1
v -1 11 2
v -1 12 2
v -1 13 2
v -1 14 2
v 0 13 2
v 0 14 2
v 1 11 2
v 1 12 2
v 1 13 2
v 1 14 2
v -2 7 1
v -2 11 1
v -1 7 1
v -1 8 1
v -1 11 1
v 0 7 1
v 0 8 1
v 1 9 1
v 1 10 1
v 1 11 1
v 2 7 1
v 2 9 1
v 2 10 1
v 2 11 1
v -1 11 -0
v -1 12 -0
v -1 13 -0
v -1 14 -0
v 0 12 -0
v 0 13 -0
v 0 14 -0
v 1 11 -0
v 1 12 -0
v 1 13 -0
v 1 14 -0
v -2 7 -1
v -2 10 -1
v -2 11 -1
v -1 10 -1
v -1 11 -1
v 0 9 -1
v 0 10 -1
v 1 7 -1
v 1 8 -1
v 1 9 -1
v 1 10 -1
v 2 7 -1
v 2 8 -1
v 2 11 -1
v -2 7 1
v -1 7 1
v 0 7 1
v 2 7 1
v -1 7 -0
v 0 7 -0
v 1 7 -0
v 2 7 -0
v -2 7 -1
v 1 7 -1
v 2 7 -1
v -1 11 2
v 1 11 2
v -1 11 1
v 1 11 1
v -2 11 1
v -1 11 1
v 1 11 1
v 2 11 1
v -2 11 -0
v -1 11 -0
v 1 11 -0
v -2 11 -1
v -1 11 -1
v 2 11 -1
v -1 14 2
v 0 14 2
v 1 14 2
v -1 14 1
v 0 14 1
v 1 14 1
v -1 14 -0
v 0 14 -0
v 1 14 -0

# faces
f 3/4/1 2/4/1 1/4/1
f 4/4/1 2/4/1 3/4/1
f 5/4/1 3/4/1 1/4/1
f 6/1/1 4/1/1 3/1/1
f 6/4/1 3/4/1 5/4/1
f 7/1/1 4/1/1 6/1/1
f 11/5/1 9/5/1 8/5/1
f 11/5/1 10/5/1 9/5/1
f 12/5/1 10/5/1 11/5/1
f 13/5/1 10/5/1 12/5/1
f 14/2/1 12/2/1 11/2/1
f 15/3/1 13/3/1 12/3/1
f 15/2/1 12/2/1 14/2/1
f 16/3/1 13/3/1 15/3/1
f 17/3/1 15/3/1 14/3/1
f 18/6/1 16/6/1 15/6/1
f 18/3/1 15/3/1 17/3/1
f 19/6/1 16/6/1 18/6/1
f 20/5/2 21/5/2 23/5/2
f 21/5/2 22/5/2 23/5/2
f 23/5/2 22/5/2 24/5/2
f 24/5/2 22/5/2 25/5/2
f 23/2/2 24/2/2 26/2/2
f 24/6/2 25/6/2 27/6/2
f 26/2/2 24/2/2 27/2/2
f 27/6/2 25/6/2 28/6/2
f 26/6/2 27/6/2 29/6/2
f 27/3/2 28/3/2 30/3/2
f 29/6/2 27/6/2 30/6/2
f 30/3/2 28/3/2 31/3/2
f 32/4/2 33/4/2 35/4/2
f 33/1/2 34/1/2 35/1/2
f 35/1/2 34/1/2 36/1/2
f 32/4/2 35/4/2 37/4/2
f 35/4/2 36/4/2 37/4/2
f 37/4/2 36/4/2 38/4/2
f 37/1/2 38/1/2 39/1/2
f 38/4/2 36/4/2 40/4/2
f 39/1/2 38/1/2 40/1/2
f 39/4/2 40/4/2 41/4/2
f 40/4/2 36/4/2 42/4/2
f 41/4/2 40/4/2 42/4/2
f 47/2/3 45/2/3 44/2/3
f 47/3/3 46/3/3 45/3/3
f 48/3/3 46/3/3 47/3/3
f 49/5/3 44/5/3 43/5/3
f 50/2/3 47/2/3 44/2/3
f 50/5/3 44/5/3 49/5/3
f 51/6/3 48/6/3 47/6/3
f 51/2/3 47/2/3 50/2/3
f 52/6/3 48/6/3 51/6/3
f 55/4/3 54/4/3 53/4/3
f 56/4/3 54/4/3 55/4/3
f 57/4/3 54/4/3 56/4/3
f 58/1/3 56/1/3 55/1/3
f 59/4/3 57/4/3 56/4/3
f 59/1/3 56/1/3 58/1/3
f 60/4/3 59/4/3 58/4/3
f 60/4/3 57/4/3 59/4/3
f 61/4/3 57/4/3 60/4/3
f 62/4/3 57/4/3 61/4/3
f 63/4/3 60/4/3 58/4/3
f 64/1/3 61/1/3 60/1/3
f 64/4/3 60/4/3 63/4/3
f 65/4/3 62/4/3 61/4/3
f 65/1/3 61/1/3 64/1/3
f 66/4/3 62/4/3 65/4/3
f 67/5/4 68/5/4 71/5/4
f 68/3/4 69/3/4 71/3/4
f 69/6/4 70/6/4 72/6/4
f 71/3/4 69/3/4 72/3/4
f 72/6/4 70/6/4 73/6/4
f 67/5/4 71/5/4 74/5/4
f 71/6/4 72/6/4 75/6/4
f 74/5/4 71/5/4 75/5/4
f 72/3/4 73/3/4 76/3/4
f 75/6/4 72/6/4 76/6/4
f 76/3/4 73/3/4 77/3/4
f 78/4/4 79/4/4 81/4/4
f 79/1/4 80/1/4 81/1/4
f 81/1/4 80/1/4 82/1/4
f 78/4/4 81/4/4 83/4/4
f 81/4/4 82/4/4 83/4/4
f 83/4/4 82/4/4 84/4/4
f 78/4/4 83/4/4 85/4/4
f 85/4/4 83/4/4 86/4/4
f 83/1/4 84/1/4 87/1/4
f 86/4/4 83/4/4 87/4/4
f 84/4/4 82/4/4 88/4/4
f 87/1/4 84/1/4 88/1/4
f 85/1/4 86/1/4 89/1/4
f 86/4/4 87/4/4 90/4/4
f 89/1/4 86/1/4 90/1/4
f 87/4/4 88/4/4 90/4/4
f 88/4/4 82/4/4 91/4/4
f 90/4/4 88/4/4 91/4/4
f 96/4/5 93/4/5 92/4/5
f 96/1/5 94/1/5 93/1/5
f 97/4/5 95/4/5 94/4/5
f 97/1/5 94/1/5 96/1/5
f 98/4/5 95/4/5 97/4/5
f 99/4/5 95/4/5 98/4/5
f 100/4/5 96/4/5 92/4/5
f 100/4/5 97/4/5 96/4/5
f 100/4/5 98/4/5 97/4/5
f 101/1/5 99/1/5 98/1/5
f 101/4/5 98/4/5 100/4/5
f 102/1/5 99/1/5 101/1/5
f 105/5/5 104/5/5 103/5/5
f 106/5/5 104/5/5 105/5/5
f 107/4/6 108/4/6 111/4/6
f 111/4/6 108/4/6 112/4/6
f 109/4/6 110/4/6 113/4/6
f 111/1/6 112/1/6 114/1/6
f 112/4/6 113/4/6 115/4/6
f 114/1/6 112/1/6 115/1/6
f 113/4/6 110/4/6 116/4/6
f 115/4/6 113/4/6 116/4/6
f 117/3/6 118/3/6 120/3/6
f 118/6/6 119/6/6 121/6/6
f 120/3/6 118/3/6 121/3/6
f 121/6/6 119/6/6 122/6/6
f 120/6/6 121/6/6 123/6/6
f 121/3/6 122/3/6 124/3/6
f 123/6/6 121/6/6 124/6/6
f 124/3/6 122/3/6 125/3/6
