# MagicaVoxel @ ephtracy

# material
mtllib legs_middle_002.mtl
usemtl palette

# normals
vn -1 0 0
vn 1 0 0
vn 0 0 1
vn 0 0 -1
vn 0 -1 0
vn 0 1 0

# texcoords
vt 0.970703 0.5
vt 0.974609 0.5
vt 0.978516 0.5
vt 0.982422 0.5

# verts
v -2 0 1
v -2 0 -1
v -2 1 1
v -2 1 -0
v -2 1 -1
v -2 2 -0
v -2 2 -1
v -2 3 1
v -2 3 -0
v -2 3 -1
v -2 4 1
v -2 4 -0
v -2 4 -1
v -2 5 1
v -2 5 -0
v -2 6 -0
v -2 6 -1
v -2 7 1
v -2 7 -1
v 1 0 1
v 1 0 -1
v 1 1 1
v 1 1 -0
v 1 1 -1
v 1 2 -0
v 1 2 -1
v 1 3 1
v 1 3 -0
v 1 4 1
v 1 4 -0
v 1 4 -1
v 1 6 1
v 1 6 -0
v -1 0 1
v -1 0 -1
v -1 1 1
v -1 1 -0
v -1 1 -1
v -1 2 -0
v -1 2 -1
v -1 3 1
v -1 3 -0
v -1 3 -1
v -1 4 1
v -1 4 -0
v -1 4 -1
v -1 5 1
v -1 5 -0
v -1 6 1
v -1 6 -0
v 2 0 1
v 2 0 -1
v 2 1 1
v 2 1 -0
v 2 1 -1
v 2 2 -0
v 2 2 -1
v 2 3 1
v 2 3 -0
v 2 4 1
v 2 4 -0
v 2 4 -1
v 2 6 1
v 2 6 -0
v 2 6 -1
v 2 7 1
v 2 7 -0
v 2 7 -1
v -2 0 1
v -2 1 1
v -2 3 1
v -2 4 1
v -2 5 1
v -2 7 1
v -1 0 1
v -1 1 1
v -1 3 1
v -1 4 1
v -1 5 1
v -1 6 1
v 1 0 1
v 1 1 1
v 1 3 1
v 1 4 1
v 1 6 1
v 1 7 1
v 2 0 1
v 2 1 1
v 2 3 1
v 2 4 1
v 2 6 1
v 2 7 1
v -2 1 -0
v -2 2 -0
v -2 3 -0
v -1 1 -0
v -1 2 -0
v -1 3 -0
v 1 1 -0
v 1 2 -0
v 1 3 -0
v 2 1 -0
v 2 2 -0
v 2 3 -0
v -2 4 -0
v -2 5 -0
v -2 6 -0
v -1 4 -0
v -1 5 -0
v -1 6 -0
v 1 4 -0
v 1 6 -0
v 2 4 -0
v 2 6 -0
v -2 0 -1
v -2 1 -1
v -2 2 -1
v -2 3 -1
v -2 4 -1
v -2 6 -1
v -2 7 -1
v -1 0 -1
v -1 1 -1
v -1 2 -1
v -1 3 -1
v -1 4 -1
v 1 0 -1
v 1 1 -1
v 1 2 -1
v 1 4 -1
v 2 0 -1
v 2 1 -1
v 2 2 -1
v 2 4 -1
v 2 6 -1
v 2 7 -1
v -2 0 1
v -1 0 1
v 1 0 1
v 2 0 1
v -2 0 -1
v -1 0 -1
v 1 0 -1
v 2 0 -1
v -2 3 1
v -1 3 1
v 1 3 1
v 2 3 1
v -2 3 -0
v -1 3 -0
v 1 3 -0
v 2 3 -0
v -1 6 1
v 1 6 1
v -2 6 -0
v -1 6 -0
v 1 6 -0
v 2 6 -0
v -2 6 -1
v 2 6 -1
v -2 1 1
v -1 1 1
v 1 1 1
v 2 1 1
v -2 1 -0
v -1 1 -0
v 1 1 -0
v 2 1 -0
v -2 4 -0
v -1 4 -0
v 1 4 -0
v 2 4 -0
v -2 4 -1
v -1 4 -1
v 1 4 -1
v 2 4 -1
v -2 7 1
v 1 7 1
v 2 7 1
v 1 7 -0
v 2 7 -0
v -2 7 -1
v 2 7 -1

# faces
f 3/2/1 2/2/1 1/2/1
f 4/2/1 2/2/1 3/2/1
f 5/2/1 2/2/1 4/2/1
f 6/1/1 5/1/1 4/1/1
f 7/1/1 5/1/1 6/1/1
f 9/4/1 7/4/1 6/4/1
f 10/4/1 7/4/1 9/4/1
f 11/3/1 9/3/1 8/3/1
f 11/3/1 10/3/1 9/3/1
f 12/3/1 10/3/1 11/3/1
f 13/3/1 10/3/1 12/3/1
f 14/4/1 12/4/1 11/4/1
f 15/4/1 12/4/1 14/4/1
f 16/3/1 15/3/1 14/3/1
f 18/3/1 16/3/1 14/3/1
f 18/3/1 17/3/1 16/3/1
f 19/3/1 17/3/1 18/3/1
f 22/2/1 21/2/1 20/2/1
f 23/2/1 21/2/1 22/2/1
f 24/2/1 21/2/1 23/2/1
f 25/1/1 24/1/1 23/1/1
f 26/1/1 24/1/1 25/1/1
f 28/3/1 26/3/1 25/3/1
f 29/4/1 28/4/1 27/4/1
f 30/3/1 26/3/1 28/3/1
f 30/4/1 28/4/1 29/4/1
f 31/3/1 26/3/1 30/3/1
f 32/3/1 30/3/1 29/3/1
f 33/3/1 30/3/1 32/3/1
f 34/2/2 35/2/2 36/2/2
f 36/2/2 35/2/2 37/2/2
f 37/2/2 35/2/2 38/2/2
f 37/1/2 38/1/2 39/1/2
f 39/1/2 38/1/2 40/1/2
f 39/4/2 40/4/2 42/4/2
f 42/4/2 40/4/2 43/4/2
f 41/3/2 42/3/2 44/3/2
f 42/3/2 43/3/2 44/3/2
f 44/3/2 43/3/2 45/3/2
f 45/3/2 43/3/2 46/3/2
f 44/4/2 45/4/2 47/4/2
f 47/4/2 45/4/2 48/4/2
f 47/3/2 48/3/2 49/3/2
f 49/3/2 48/3/2 50/3/2
f 51/2/2 52/2/2 53/2/2
f 53/2/2 52/2/2 54/2/2
f 54/2/2 52/2/2 55/2/2
f 54/1/2 55/1/2 56/1/2
f 56/1/2 55/1/2 57/1/2
f 56/3/2 57/3/2 59/3/2
f 58/4/2 59/4/2 60/4/2
f 59/3/2 57/3/2 61/3/2
f 60/4/2 59/4/2 61/4/2
f 61/3/2 57/3/2 62/3/2
f 60/3/2 61/3/2 63/3/2
f 63/3/2 61/3/2 64/3/2
f 63/4/2 64/4/2 66/4/2
f 64/3/2 65/3/2 67/3/2
f 66/4/2 64/4/2 67/4/2
f 67/3/2 65/3/2 68/3/2
f 75/2/3 70/2/3 69/2/3
f 76/2/3 70/2/3 75/2/3
f 77/3/3 72/3/3 71/3/3
f 78/4/3 73/4/3 72/4/3
f 78/3/3 72/3/3 77/3/3
f 79/3/3 74/3/3 73/3/3
f 79/4/3 73/4/3 78/4/3
f 80/3/3 74/3/3 79/3/3
f 85/3/3 74/3/3 80/3/3
f 86/3/3 74/3/3 85/3/3
f 87/2/3 82/2/3 81/2/3
f 88/2/3 82/2/3 87/2/3
f 89/4/3 84/4/3 83/4/3
f 90/3/3 85/3/3 84/3/3
f 90/4/3 84/4/3 89/4/3
f 91/4/3 86/4/3 85/4/3
f 91/3/3 85/3/3 90/3/3
f 92/4/3 86/4/3 91/4/3
f 96/1/3 94/1/3 93/1/3
f 97/4/3 95/4/3 94/4/3
f 97/1/3 94/1/3 96/1/3
f 98/4/3 95/4/3 97/4/3
f 102/1/3 100/1/3 99/1/3
f 103/3/3 101/3/3 100/3/3
f 103/1/3 100/1/3 102/1/3
f 104/3/3 101/3/3 103/3/3
f 105/4/4 106/4/4 108/4/4
f 106/3/4 107/3/4 109/3/4
f 108/4/4 106/4/4 109/4/4
f 109/3/4 107/3/4 110/3/4
f 111/3/4 112/3/4 113/3/4
f 113/3/4 112/3/4 114/3/4
f 115/2/4 116/2/4 122/2/4
f 116/1/4 117/1/4 123/1/4
f 122/2/4 116/2/4 123/2/4
f 117/4/4 118/4/4 124/4/4
f 123/1/4 117/1/4 124/1/4
f 118/3/4 119/3/4 125/3/4
f 124/4/4 118/4/4 125/4/4
f 125/3/4 119/3/4 126/3/4
f 127/2/4 128/2/4 131/2/4
f 128/1/4 129/1/4 132/1/4
f 131/2/4 128/2/4 132/2/4
f 129/3/4 130/3/4 133/3/4
f 132/1/4 129/1/4 133/1/4
f 133/3/4 130/3/4 134/3/4
f 120/3/4 121/3/4 135/3/4
f 135/3/4 121/3/4 136/3/4
f 141/2/5 138/2/5 137/2/5
f 142/2/5 138/2/5 141/2/5
f 143/2/5 140/2/5 139/2/5
f 144/2/5 140/2/5 143/2/5
f 149/3/5 146/3/5 145/3/5
f 150/3/5 146/3/5 149/3/5
f 151/4/5 148/4/5 147/4/5
f 152/4/5 148/4/5 151/4/5
f 156/3/5 154/3/5 153/3/5
f 157/3/5 154/3/5 156/3/5
f 159/3/5 156/3/5 155/3/5
f 159/3/5 158/3/5 157/3/5
f 159/3/5 157/3/5 156/3/5
f 160/3/5 158/3/5 159/3/5
f 161/2/6 162/2/6 165/2/6
f 165/2/6 162/2/6 166/2/6
f 163/2/6 164/2/6 167/2/6
f 167/2/6 164/2/6 168/2/6
f 169/3/6 170/3/6 173/3/6
f 173/3/6 170/3/6 174/3/6
f 171/3/6 172/3/6 175/3/6
f 175/3/6 172/3/6 176/3/6
f 177/3/6 178/3/6 180/3/6
f 178/4/6 179/4/6 180/4/6
f 180/4/6 179/4/6 181/4/6
f 177/3/6 180/3/6 182/3/6
f 180/3/6 181/3/6 182/3/6
f 182/3/6 181/3/6 183/3/6
