# MagicaVoxel @ ephtracy

# material
mtllib legs_walk_2_002.mtl
usemtl palette

# normals
vn -1 0 0
vn 1 0 0
vn 0 0 1
vn 0 0 -1
vn 0 -1 0
vn 0 1 0

# texcoords
vt 0.970703 0.5
vt 0.974609 0.5
vt 0.978516 0.5
vt 0.982422 0.5

# verts
v -2 1 -1
v -2 1 -3
v -2 2 -1
v -2 2 -2
v -2 2 -3
v -2 3 -1
v -2 3 -2
v -2 3 -3
v -2 4 -0
v -2 4 -1
v -2 4 -2
v -2 4 -3
v -2 5 1
v -2 5 -0
v -2 5 -1
v -2 5 -2
v -2 7 1
v -2 7 -1
v 1 1 4
v 1 1 2
v 1 2 4
v 1 2 3
v 1 2 2
v 1 3 3
v 1 3 2
v 1 3 1
v 1 4 3
v 1 4 2
v 1 4 1
v 1 4 -0
v 1 5 2
v 1 5 1
v 1 5 -0
v 1 5 -1
v 1 6 1
v 1 6 -1
v -1 1 -1
v -1 1 -3
v -1 2 -1
v -1 2 -2
v -1 2 -3
v -1 3 -1
v -1 3 -2
v -1 3 -3
v -1 4 -0
v -1 4 -1
v -1 4 -2
v -1 4 -3
v -1 5 1
v -1 5 -0
v -1 5 -1
v -1 5 -2
v -1 6 1
v -1 6 -1
v 2 1 4
v 2 1 2
v 2 2 4
v 2 2 3
v 2 2 2
v 2 3 3
v 2 3 2
v 2 3 1
v 2 4 3
v 2 4 2
v 2 4 1
v 2 4 -0
v 2 5 2
v 2 5 1
v 2 5 -0
v 2 5 -1
v 2 6 1
v 2 6 -0
v 2 7 1
v 2 7 -0
v 2 7 -1
v 1 1 4
v 1 2 4
v 2 1 4
v 2 2 4
v 1 2 3
v 1 3 3
v 1 4 3
v 2 2 3
v 2 3 3
v 2 4 3
v 1 4 2
v 1 5 2
v 2 4 2
v 2 5 2
v -2 5 1
v -2 7 1
v -1 5 1
v -1 6 1
v 1 5 1
v 1 6 1
v 1 7 1
v 2 5 1
v 2 6 1
v 2 7 1
v -2 4 -0
v -2 5 -0
v -1 4 -0
v -1 5 -0
v -2 1 -1
v -2 2 -1
v -2 3 -1
v -2 4 -1
v -1 1 -1
v -1 2 -1
v -1 3 -1
v -1 4 -1
v -2 2 -2
v -2 3 -2
v -1 2 -2
v -1 3 -2
v 1 1 2
v 1 2 2
v 1 3 2
v 2 1 2
v 2 2 2
v 2 3 2
v 1 3 1
v 1 4 1
v 2 3 1
v 2 4 1
v 1 4 -0
v 1 5 -0
v 2 4 -0
v 2 5 -0
v -2 5 -1
v -2 7 -1
v -1 5 -1
v -1 6 -1
v 1 5 -1
v 1 6 -1
v 2 5 -1
v 2 7 -1
v -2 4 -2
v -2 5 -2
v -1 4 -2
v -1 5 -2
v -2 1 -3
v -2 2 -3
v -2 3 -3
v -2 4 -3
v -1 1 -3
v -1 2 -3
v -1 3 -3
v -1 4 -3
v 1 1 4
v 2 1 4
v 1 1 2
v 2 1 2
v -2 1 -1
v -1 1 -1
v -2 1 -3
v -1 1 -3
v 1 3 2
v 2 3 2
v 1 3 1
v 2 3 1
v -2 3 -1
v -1 3 -1
v -2 3 -2
v -1 3 -2
v 1 4 1
v 2 4 1
v -2 4 -0
v -1 4 -0
v 1 4 -0
v 2 4 -0
v -2 4 -1
v -1 4 -1
v -2 5 1
v -1 5 1
v -2 5 -0
v -1 5 -0
v 1 5 -0
v 2 5 -0
v 1 5 -1
v 2 5 -1
v -1 6 1
v 1 6 1
v -1 6 -1
v 1 6 -1
v 1 2 4
v 2 2 4
v 1 2 3
v 2 2 3
v -2 2 -1
v -1 2 -1
v -2 2 -2
v -1 2 -2
v 1 4 3
v 2 4 3
v 1 4 2
v 2 4 2
v -2 4 -2
v -1 4 -2
v -2 4 -3
v -1 4 -3
v 1 5 2
v 2 5 2
v 1 5 1
v 2 5 1
v -2 5 -1
v -1 5 -1
v -2 5 -2
v -1 5 -2
v -2 7 1
v 1 7 1
v 2 7 1
v 1 7 -0
v 2 7 -0
v -2 7 -1
v 2 7 -1

# faces
f 3/2/1 2/2/1 1/2/1
f 4/2/1 2/2/1 3/2/1
f 5/2/1 2/2/1 4/2/1
f 7/1/1 5/1/1 4/1/1
f 8/1/1 5/1/1 7/1/1
f 10/3/1 7/3/1 6/3/1
f 11/4/1 8/4/1 7/4/1
f 11/3/1 7/3/1 10/3/1
f 12/4/1 8/4/1 11/4/1
f 14/4/1 10/4/1 9/4/1
f 15/3/1 11/3/1 10/3/1
f 15/4/1 10/4/1 14/4/1
f 16/3/1 11/3/1 15/3/1
f 17/3/1 14/3/1 13/3/1
f 17/3/1 15/3/1 14/3/1
f 18/3/1 15/3/1 17/3/1
f 21/2/1 20/2/1 19/2/1
f 22/2/1 20/2/1 21/2/1
f 23/2/1 20/2/1 22/2/1
f 24/1/1 23/1/1 22/1/1
f 25/1/1 23/1/1 24/1/1
f 27/3/1 25/3/1 24/3/1
f 28/4/1 26/4/1 25/4/1
f 28/3/1 25/3/1 27/3/1
f 29/4/1 26/4/1 28/4/1
f 31/3/1 30/3/1 29/3/1
f 31/3/1 29/3/1 28/3/1
f 32/3/1 30/3/1 31/3/1
f 33/3/1 30/3/1 32/3/1
f 35/3/1 34/3/1 33/3/1
f 35/3/1 33/3/1 32/3/1
f 36/3/1 34/3/1 35/3/1
f 37/2/2 38/2/2 39/2/2
f 39/2/2 38/2/2 40/2/2
f 40/2/2 38/2/2 41/2/2
f 40/1/2 41/1/2 43/1/2
f 43/1/2 41/1/2 44/1/2
f 42/3/2 43/3/2 46/3/2
f 43/4/2 44/4/2 47/4/2
f 46/3/2 43/3/2 47/3/2
f 47/4/2 44/4/2 48/4/2
f 45/4/2 46/4/2 50/4/2
f 46/3/2 47/3/2 51/3/2
f 50/4/2 46/4/2 51/4/2
f 51/3/2 47/3/2 52/3/2
f 49/3/2 50/3/2 53/3/2
f 50/3/2 51/3/2 53/3/2
f 53/3/2 51/3/2 54/3/2
f 55/2/2 56/2/2 57/2/2
f 57/2/2 56/2/2 58/2/2
f 58/2/2 56/2/2 59/2/2
f 58/1/2 59/1/2 60/1/2
f 60/1/2 59/1/2 61/1/2
f 60/3/2 61/3/2 63/3/2
f 61/4/2 62/4/2 64/4/2
f 63/3/2 61/3/2 64/3/2
f 64/4/2 62/4/2 65/4/2
f 65/3/2 66/3/2 67/3/2
f 64/3/2 65/3/2 67/3/2
f 67/3/2 66/3/2 68/3/2
f 68/3/2 66/3/2 69/3/2
f 69/3/2 70/3/2 71/3/2
f 68/3/2 69/3/2 71/3/2
f 71/3/2 70/3/2 72/3/2
f 71/4/2 72/4/2 73/4/2
f 72/3/2 70/3/2 74/3/2
f 73/4/2 72/4/2 74/4/2
f 74/3/2 70/3/2 75/3/2
f 78/2/3 77/2/3 76/2/3
f 79/2/3 77/2/3 78/2/3
f 83/1/3 81/1/3 80/1/3
f 84/3/3 82/3/3 81/3/3
f 84/1/3 81/1/3 83/1/3
f 85/3/3 82/3/3 84/3/3
f 88/3/3 87/3/3 86/3/3
f 89/3/3 87/3/3 88/3/3
f 92/3/3 91/3/3 90/3/3
f 93/3/3 91/3/3 92/3/3
f 95/3/3 91/3/3 93/3/3
f 96/3/3 91/3/3 95/3/3
f 97/3/3 95/3/3 94/3/3
f 98/4/3 96/4/3 95/4/3
f 98/3/3 95/3/3 97/3/3
f 99/4/3 96/4/3 98/4/3
f 102/4/3 101/4/3 100/4/3
f 103/4/3 101/4/3 102/4/3
f 108/2/3 105/2/3 104/2/3
f 109/2/3 105/2/3 108/2/3
f 110/3/3 107/3/3 106/3/3
f 111/3/3 107/3/3 110/3/3
f 114/1/3 113/1/3 112/1/3
f 115/1/3 113/1/3 114/1/3
f 116/2/4 117/2/4 119/2/4
f 117/1/4 118/1/4 120/1/4
f 119/2/4 117/2/4 120/2/4
f 120/1/4 118/1/4 121/1/4
f 122/4/4 123/4/4 124/4/4
f 124/4/4 123/4/4 125/4/4
f 126/3/4 127/3/4 128/3/4
f 128/3/4 127/3/4 129/3/4
f 130/3/4 131/3/4 132/3/4
f 132/3/4 131/3/4 133/3/4
f 133/3/4 131/3/4 135/3/4
f 134/3/4 135/3/4 136/3/4
f 135/3/4 131/3/4 137/3/4
f 136/3/4 135/3/4 137/3/4
f 138/3/4 139/3/4 140/3/4
f 140/3/4 139/3/4 141/3/4
f 142/2/4 143/2/4 146/2/4
f 143/1/4 144/1/4 147/1/4
f 146/2/4 143/2/4 147/2/4
f 144/4/4 145/4/4 148/4/4
f 147/1/4 144/1/4 148/1/4
f 148/4/4 145/4/4 149/4/4
f 152/2/5 151/2/5 150/2/5
f 153/2/5 151/2/5 152/2/5
f 156/2/5 155/2/5 154/2/5
f 157/2/5 155/2/5 156/2/5
f 160/4/5 159/4/5 158/4/5
f 161/4/5 159/4/5 160/4/5
f 164/3/5 163/3/5 162/3/5
f 165/3/5 163/3/5 164/3/5
f 170/3/5 167/3/5 166/3/5
f 171/3/5 167/3/5 170/3/5
f 172/4/5 169/4/5 168/4/5
f 173/4/5 169/4/5 172/4/5
f 176/3/5 175/3/5 174/3/5
f 177/3/5 175/3/5 176/3/5
f 180/3/5 179/3/5 178/3/5
f 181/3/5 179/3/5 180/3/5
f 184/3/5 183/3/5 182/3/5
f 185/3/5 183/3/5 184/3/5
f 186/2/6 187/2/6 188/2/6
f 188/2/6 187/2/6 189/2/6
f 190/2/6 191/2/6 192/2/6
f 192/2/6 191/2/6 193/2/6
f 194/3/6 195/3/6 196/3/6
f 196/3/6 195/3/6 197/3/6
f 198/4/6 199/4/6 200/4/6
f 200/4/6 199/4/6 201/4/6
f 202/3/6 203/3/6 204/3/6
f 204/3/6 203/3/6 205/3/6
f 206/3/6 207/3/6 208/3/6
f 208/3/6 207/3/6 209/3/6
f 210/3/6 211/3/6 213/3/6
f 211/4/6 212/4/6 213/4/6
f 213/4/6 212/4/6 214/4/6
f 210/3/6 213/3/6 215/3/6
f 213/3/6 214/3/6 215/3/6
f 215/3/6 214/3/6 216/3/6
