ply
format ascii 1.0
comment : man
comment : MagicaVoxel @ ephtracy
element vertex 700
property float x
property float y
property float z
property uchar red
property uchar green
property uchar blue
element face 560
property list uchar int vertex_index
end_header
-1 -1 1 150 251 0
0 -1 1 144 240 0
0 0 1 122 203 0
-1 0 1 140 234 0
-0.5 -0.5 1 139 232 0
1 -1 1 144 240 0
2 -1 1 150 250 0
2 0 1 144 240 0
1 0 1 121 203 0
1.5 -0.5 1 140 233 0
-1 0 9 118 157 197
0 0 9 96 128 160
0 1 9 112 149 186
-1 1 9 123 164 205
-0.5 0.5 9 112 150 187
1 0 9 102 136 170
2 0 9 130 173 216
2 1 9 139 185 232
1 1 9 120 161 201
1.5 0.5 9 123 164 205
2 0 9 130 173 216
3 0 9 159 212 255
3 1 9 163 217 255
2 1 9 139 185 232
2.5 0.5 9 148 197 239
-2 0 9 148 197 247
-1 0 9 118 157 197
-1 1 9 123 164 205
-2 1 9 145 194 243
-1.5 0.5 9 133 178 223
-1 -1 12 187 124 0
0 -1 12 187 124 0
0 0 12 187 124 0
-1 0 12 187 124 0
-0.5 -0.5 12 187 124 0
0 -1 12 187 124 0
1 -1 12 187 124 0
1 0 12 187 124 0
0 0 12 187 124 0
0.5 -0.5 12 187 124 0
1 -1 12 187 124 0
2 -1 12 187 124 0
2 0 12 187 124 0
1 0 12 187 124 0
1.5 -0.5 12 187 124 0
-1 0 12 62 62 0
0 0 12 62 62 0
0 1 12 62 62 0
-1 1 12 62 62 0
-0.5 0.5 12 62 62 0
0 0 12 62 62 0
1 0 12 62 62 0
1 1 12 62 62 0
0 1 12 62 62 0
0.5 0.5 12 62 62 0
1 0 12 62 62 0
2 0 12 62 62 0
2 1 12 62 62 0
1 1 12 62 62 0
1.5 0.5 12 62 62 0
0 -1 0 81 136 0
0 0 0 72 120 0
0 0 1 76 127 0
0 -1 1 87 145 0
0 -0.5 0.5 79 132 0
0 0 1 76 101 127
0 1 1 76 101 126
0 1 2 80 107 133
0 0 2 84 112 140
0 0.5 1.5 79 105 132
0 0 2 84 112 140
0 1 2 80 107 133
0 1 3 76 101 127
0 0 3 80 107 134
0 0.5 2.5 80 107 134
0 0 3 80 107 134
0 1 3 76 101 127
0 1 4 75 100 125
0 0 4 79 106 132
0 0.5 3.5 77 103 129
2 -1 0 110 184 0
2 0 0 110 184 0
2 0 1 114 191 0
2 -1 1 115 191 0
2 -0.5 0.5 112 187 0
2 0 1 114 153 191
2 1 1 115 153 192
2 1 2 119 159 199
2 0 2 119 158 198
2 0.5 1.5 117 156 195
2 0 2 119 158 198
2 1 2 119 159 199
2 1 3 119 159 199
2 0 3 121 161 201
2 0.5 2.5 119 159 199
2 0 3 121 161 201
2 1 3 119 159 199
2 1 4 109 146 182
2 0 4 113 151 189
2 0.5 3.5 115 154 193
2 0 4 113 151 189
2 1 4 109 146 182
2 1 5 99 132 165
2 0 5 104 139 174
2 0.5 4.5 106 142 178
1 0 9 94 125 157
1 1 9 102 137 171
1 1 10 105 140 175
1 0 10 91 122 153
1 0.5 9.5 98 131 164
3 0 8 145 193 241
3 1 8 145 193 242
3 1 9 148 197 246
3 0 9 148 197 246
3 0.5 8.5 146 195 244
2 0 10 146 97 0
2 1 10 146 97 0
2 1 11 151 101 0
2 0 11 151 101 0
2 0.5 10.5 148 99 0
2 -1 10 147 98 0
2 0 10 146 97 0
2 0 11 151 101 0
2 -1 11 151 100 0
2 -0.5 10.5 149 99 0
2 -1 11 151 100 0
2 0 11 151 101 0
2 0 12 153 102 0
2 -1 12 153 102 0
2 -0.5 11.5 152 101 0
2 0 11 50 50 0
2 1 11 50 50 0
2 1 12 51 51 0
2 0 12 51 51 0
2 0.5 11.5 50 50 0
3 0 7 141 94 0
3 1 7 141 94 0
3 1 8 145 96 0
3 0 8 145 96 0
3 0.5 7.5 143 95 0
3 0 6 137 91 0
3 1 6 137 91 0
3 1 7 141 94 0
3 0 7 141 94 0
3 0.5 6.5 139 93 0
3 0 5 133 223 0
3 1 5 133 223 0
3 1 6 137 229 0
3 0 6 137 229 0
3 0.5 5.5 135 226 0
2 0 0 110 184 0
2 1 0 110 184 0
2 1 1 115 192 0
2 0 1 114 191 0
2 0.5 0.5 112 188 0
0 0 0 72 120 0
0 1 0 74 124 0
0 1 1 76 126 0
0 0 1 76 127 0
0 0.5 0.5 74 124 0
-1 1 1 107 143 179
-1 1 2 111 148 186
0 1 2 111 148 186
0 1 1 107 143 179
-0.5 1 1.5 109 146 182
-1 1 2 111 148 186
-1 1 3 115 153 192
0 1 3 115 153 192
0 1 2 111 148 186
-0.5 1 2.5 113 151 189
-1 1 3 115 153 192
-1 1 4 119 158 198
0 1 4 119 158 198
0 1 3 115 153 192
-0.5 1 3.5 117 156 195
-1 1 4 119 158 198
-1 1 5 123 164 205
0 1 5 122 163 204
0 1 4 119 158 198
-0.5 1 4.5 121 161 201
1 1 1 107 143 179
1 1 2 111 149 186
2 1 2 111 149 186
2 1 1 107 143 178
1.5 1 1.5 109 146 182
1 1 2 111 149 186
1 1 3 115 153 192
2 1 3 115 154 192
2 1 2 111 149 186
1.5 1 2.5 113 151 189
1 1 3 115 153 192
1 1 4 119 158 198
2 1 4 119 159 199
2 1 3 115 154 192
1.5 1 3.5 117 156 195
1 1 4 119 158 198
1 1 5 123 164 205
2 1 5 123 164 205
2 1 4 119 159 199
1.5 1 4.5 121 161 202
0 1 4 119 158 198
0 1 5 122 163 204
1 1 5 123 164 205
1 1 4 119 158 198
0.5 1 4.5 121 161 201
0 1 5 122 163 204
0 1 6 126 168 210
1 1 6 126 168 210
1 1 5 123 164 205
0.5 1 5.5 124 166 207
0 1 6 126 168 210
0 1 7 128 171 214
1 1 7 128 171 214
1 1 6 126 168 210
0.5 1 6.5 127 169 212
-1 1 5 123 164 205
-1 1 6 126 168 210
0 1 6 126 168 210
0 1 5 122 163 204
-0.5 1 5.5 124 166 207
-1 1 6 126 168 210
-1 1 7 128 171 214
0 1 7 128 171 214
0 1 6 126 168 210
-0.5 1 6.5 127 170 212
1 1 5 123 164 205
1 1 6 126 168 210
2 1 6 125 167 209
2 1 5 123 164 205
1.5 1 5.5 124 166 207
1 1 6 126 168 210
1 1 7 128 171 214
2 1 7 128 171 214
2 1 6 125 167 209
1.5 1 6.5 127 169 212
0 1 7 128 171 214
0 1 8 131 175 219
1 1 8 131 175 219
1 1 7 128 171 214
0.5 1 7.5 130 173 216
-1 1 7 128 171 214
-1 1 8 131 175 219
0 1 8 131 175 219
0 1 7 128 171 214
-0.5 1 7.5 130 173 217
1 1 7 128 171 214
1 1 8 131 175 219
2 1 8 131 175 219
2 1 7 128 171 214
1.5 1 7.5 130 173 216
-1 1 8 131 175 219
-1 1 9 135 180 225
0 1 9 134 179 224
0 1 8 131 175 219
-0.5 1 8.5 133 177 222
0 1 8 131 175 219
0 1 9 134 179 224
1 1 9 134 179 224
1 1 8 131 175 219
0.5 1 8.5 133 177 221
1 1 8 131 175 219
1 1 9 134 179 224
2 1 9 134 179 224
2 1 8 131 175 219
1.5 1 8.5 133 177 221
0 1 9 134 179 224
0 1 10 137 183 229
1 1 10 137 183 229
1 1 9 134 179 224
0.5 1 9.5 136 181 227
2 1 8 131 175 219
2 1 9 134 179 224
3 1 9 134 179 224
3 1 8 131 175 219
2.5 1 8.5 133 177 222
-2 1 8 131 175 219
-2 1 9 135 180 225
-1 1 9 135 180 225
-1 1 8 131 175 219
-1.5 1 8.5 133 177 222
0 1 10 137 91 0
0 1 11 139 93 0
1 1 11 140 93 0
1 1 10 137 91 0
0.5 1 10.5 138 92 0
-1 1 10 137 91 0
-1 1 11 139 93 0
0 1 11 139 93 0
0 1 10 137 91 0
-0.5 1 10.5 138 92 0
1 1 10 137 91 0
1 1 11 140 93 0
2 1 11 140 93 0
2 1 10 137 91 0
1.5 1 10.5 139 92 0
-1 1 11 46 46 0
-1 1 12 47 47 0
0 1 12 47 47 0
0 1 11 46 46 0
-0.5 1 11.5 46 46 0
0 1 11 46 46 0
0 1 12 47 47 0
1 1 12 47 47 0
1 1 11 46 46 0
0.5 1 11.5 46 46 0
1 1 11 46 46 0
1 1 12 47 47 0
2 1 12 47 47 0
2 1 11 46 46 0
1.5 1 11.5 47 47 0
2 1 7 128 85 0
2 1 8 131 87 0
3 1 8 131 87 0
3 1 7 128 85 0
2.5 1 7.5 130 86 0
2 1 6 125 83 0
2 1 7 128 85 0
3 1 7 128 85 0
3 1 6 125 83 0
2.5 1 6.5 127 84 0
-2 1 7 129 86 0
-2 1 8 131 87 0
-1 1 8 131 87 0
-1 1 7 128 85 0
-1.5 1 7.5 130 86 0
-2 1 6 126 84 0
-2 1 7 129 86 0
-1 1 7 128 85 0
-1 1 6 126 84 0
-1.5 1 6.5 127 85 0
2 1 5 123 205 0
2 1 6 125 209 0
3 1 6 125 209 0
3 1 5 123 205 0
2.5 1 5.5 124 207 0
-2 1 5 123 205 0
-2 1 6 126 211 0
-1 1 6 126 210 0
-1 1 5 123 205 0
-1.5 1 5.5 124 208 0
1 1 0 101 169 0
1 1 1 107 179 0
2 1 1 107 178 0
2 1 0 101 169 0
1.5 1 0.5 104 174 0
-1 1 0 102 170 0
-1 1 1 107 179 0
0 1 1 107 179 0
0 1 0 102 170 0
-0.5 1 0.5 104 174 0
-1 -1 0 16 27 0
-1 0 0 16 27 0
0 0 0 16 27 0
0 -1 0 16 27 0
-0.5 -0.5 0 16 27 0
1 -1 0 16 27 0
1 0 0 16 27 0
2 0 0 16 27 0
2 -1 0 16 28 0
1.5 -0.5 0 16 27 0
0 0 4 22 29 37
0 1 4 22 29 36
1 1 4 21 28 36
1 0 4 22 29 36
0.5 0.5 4 22 29 36
-1 0 10 48 32 0
-1 1 10 50 33 0
0 1 10 46 31 0
0 0 10 44 29 0
-0.5 0.5 10 47 31 0
-1 -1 10 47 31 0
-1 0 10 48 32 0
0 0 10 44 29 0
0 -1 10 44 29 0
-0.5 -0.5 10 46 31 0
0 -1 10 44 29 0
0 0 10 44 29 0
1 0 10 45 30 0
1 -1 10 45 30 0
0.5 -0.5 10 44 29 0
1 0 10 45 30 0
1 1 10 46 31 0
2 1 10 49 33 0
2 0 10 49 32 0
1.5 0.5 10 47 31 0
1 -1 10 45 30 0
1 0 10 45 30 0
2 0 10 49 32 0
2 -1 10 49 32 0
1.5 -0.5 10 47 31 0
2 0 5 25 42 0
2 1 5 25 42 0
3 1 5 27 45 0
3 0 5 26 44 0
2.5 0.5 5 26 43 0
-2 0 5 28 47 0
-2 1 5 28 47 0
-1 1 5 27 45 0
-1 0 5 26 44 0
-1.5 0.5 5 27 46 0
1 0 0 16 27 0
1 1 0 16 27 0
2 1 0 16 27 0
2 0 0 16 27 0
1.5 0.5 0 16 27 0
-1 0 0 16 27 0
-1 1 0 16 27 0
0 1 0 16 27 0
0 0 0 16 27 0
-0.5 0.5 0 16 27 0
-1 -1 0 100 166 0
-1 -1 1 104 174 0
-1 0 1 104 174 0
-1 0 0 99 166 0
-1 -0.5 0.5 102 170 0
-1 0 1 104 139 174
-1 0 2 109 145 182
-1 1 2 109 146 182
-1 1 1 104 139 174
-1 0.5 1.5 106 142 178
-1 0 2 109 145 182
-1 0 3 112 150 188
-1 1 3 113 150 188
-1 1 2 109 146 182
-1 0.5 2.5 111 148 185
-1 0 3 112 150 188
-1 0 4 107 142 178
-1 1 4 107 142 178
-1 1 3 113 150 188
-1 0.5 3.5 110 146 183
-1 0 4 107 142 178
-1 0 5 99 132 165
-1 1 5 98 130 163
-1 1 4 107 142 178
-1 0.5 4.5 102 137 171
1 -1 0 71 119 0
1 -1 1 77 129 0
1 0 1 67 112 0
1 0 0 63 105 0
1 -0.5 0.5 70 116 0
1 0 1 67 89 112
1 0 2 75 100 125
1 1 2 75 100 125
1 1 1 69 92 116
1 0.5 1.5 71 95 119
1 0 2 75 100 125
1 0 3 74 99 123
1 1 3 73 98 122
1 1 2 75 100 125
1 0.5 2.5 74 99 124
1 0 3 74 99 123
1 0 4 74 99 124
1 1 4 73 97 122
1 1 3 73 98 122
1 0.5 3.5 74 98 123
0 0 9 92 123 154
0 0 10 91 121 152
0 1 10 102 136 171
0 1 9 99 133 166
0 0.5 9.5 96 128 161
-2 0 8 136 181 227
-2 0 9 138 185 231
-2 1 9 139 185 231
-2 1 8 136 181 227
-2 0.5 8.5 137 183 229
-1 0 10 137 91 0
-1 0 11 142 95 0
-1 1 11 142 95 0
-1 1 10 137 91 0
-1 0.5 10.5 140 93 0
-1 -1 10 139 92 0
-1 -1 11 143 95 0
-1 0 11 142 95 0
-1 0 10 137 91 0
-1 -0.5 10.5 140 93 0
-1 -1 11 143 95 0
-1 -1 12 145 96 0
-1 0 12 145 96 0
-1 0 11 142 95 0
-1 -0.5 11.5 144 96 0
-1 0 11 47 47 0
-1 0 12 48 48 0
-1 1 12 48 48 0
-1 1 11 47 47 0
-1 0.5 11.5 48 48 0
-2 0 7 133 88 0
-2 0 8 136 90 0
-2 1 8 136 90 0
-2 1 7 133 89 0
-2 0.5 7.5 134 89 0
-2 0 6 130 86 0
-2 0 7 133 88 0
-2 1 7 133 89 0
-2 1 6 130 86 0
-2 0.5 6.5 131 87 0
-2 0 5 125 209 0
-2 0 6 130 216 0
-2 1 6 130 216 0
-2 1 5 125 209 0
-2 0.5 5.5 128 213 0
1 0 0 63 105 0
1 0 1 67 112 0
1 1 1 69 116 0
1 1 0 68 114 0
1 0.5 0.5 67 112 0
-1 0 0 99 166 0
-1 0 1 104 174 0
-1 1 1 104 174 0
-1 1 0 99 166 0
-1 0.5 0.5 102 170 0
-1 -1 0 106 178 0
0 -1 0 106 178 0
0 -1 1 110 184 0
-1 -1 1 110 184 0
-0.5 -1 0.5 108 181 0
-1 0 1 103 138 172
0 0 1 97 130 163
0 0 2 114 153 191
-1 0 2 114 153 191
-0.5 0 1.5 107 143 179
-1 0 2 114 153 191
0 0 2 114 153 191
0 0 3 119 159 199
-1 0 3 119 159 199
-0.5 0 2.5 117 156 195
-1 0 3 119 159 199
0 0 3 119 159 199
0 0 4 122 163 204
-1 0 4 122 163 204
-0.5 0 3.5 121 161 202
-1 0 4 122 163 204
0 0 4 122 163 204
0 0 5 126 168 210
-1 0 5 126 168 210
-0.5 0 4.5 124 165 207
1 -1 0 106 178 0
2 -1 0 106 178 0
2 -1 1 111 185 0
1 -1 1 110 184 0
1.5 -1 0.5 108 181 0
1 0 1 97 130 163
2 0 1 105 140 175
2 0 2 114 153 191
1 0 2 114 153 191
1.5 0 1.5 108 144 180
1 0 2 114 153 191
2 0 2 114 153 191
2 0 3 119 159 199
1 0 3 119 159 199
1.5 0 2.5 117 156 195
1 0 3 119 159 199
2 0 3 119 159 199
2 0 4 122 163 204
1 0 4 122 163 204
1.5 0 3.5 121 161 201
1 0 4 122 163 204
2 0 4 122 163 204
2 0 5 126 168 210
1 0 5 126 168 210
1.5 0 4.5 124 165 207
0 0 4 122 163 204
1 0 4 122 163 204
1 0 5 126 168 210
0 0 5 126 168 210
0.5 0 4.5 124 165 207
0 0 5 126 168 210
1 0 5 126 168 210
1 0 6 129 172 216
0 0 6 129 172 215
0.5 0 5.5 127 170 213
0 0 6 129 172 215
1 0 6 129 172 216
1 0 7 132 176 220
0 0 7 131 175 219
0.5 0 6.5 130 174 217
-1 0 5 126 168 210
0 0 5 126 168 210
0 0 6 129 172 215
-1 0 6 129 172 215
-0.5 0 5.5 127 170 213
-1 0 6 129 172 215
0 0 6 129 172 215
0 0 7 131 175 219
-1 0 7 131 175 219
-0.5 0 6.5 130 174 217
1 0 5 126 168 210
2 0 5 126 168 210
2 0 6 130 173 216
1 0 6 129 172 216
1.5 0 5.5 128 170 213
1 0 6 129 172 216
2 0 6 130 173 216
2 0 7 132 176 221
1 0 7 132 176 220
1.5 0 6.5 131 174 218
0 0 7 131 175 219
1 0 7 132 176 220
1 0 8 128 171 214
0 0 8 126 169 211
0.5 0 7.5 129 173 216
-1 0 7 131 175 219
0 0 7 131 175 219
0 0 8 126 169 211
-1 0 8 128 170 213
-0.5 0 7.5 129 172 216
1 0 7 132 176 220
2 0 7 132 176 221
2 0 8 132 176 221
1 0 8 128 171 214
1.5 0 7.5 131 175 219
-1 0 8 128 170 213
0 0 8 126 169 211
0 0 9 107 143 179
-1 0 9 115 153 192
-0.5 0 8.5 119 159 199
0 0 8 126 169 211
1 0 8 128 171 214
1 0 9 111 148 185
0 0 9 107 143 179
0.5 0 8.5 118 158 197
1 0 8 128 171 214
2 0 8 132 176 221
2 0 9 124 165 207
1 0 9 111 148 185
1.5 0 8.5 124 165 207
0 0 9 107 143 179
1 0 9 111 148 185
1 0 10 97 130 162
0 0 10 94 126 157
0.5 0 9.5 102 137 171
2 0 8 132 176 221
3 0 8 135 180 225
3 0 9 135 180 225
2 0 9 124 165 207
2.5 0 8.5 131 175 219
-2 0 8 131 175 219
-1 0 8 128 170 213
-1 0 9 115 153 192
-2 0 9 128 170 213
-1.5 0 8.5 125 167 209
-1 -1 10 146 97 0
0 -1 10 146 97 0
0 -1 11 149 99 0
-1 -1 11 149 99 0
-0.5 -1 10.5 147 98 0
0 -1 10 146 97 0
1 -1 10 146 97 0
1 -1 11 149 99 0
0 -1 11 149 99 0
0.5 -1 10.5 147 98 0
1 -1 10 146 97 0
2 -1 10 146 97 0
2 -1 11 149 99 0
1 -1 11 149 99 0
1.5 -1 10.5 147 98 0
-1 -1 11 149 99 0
0 -1 11 149 99 0
0 -1 12 151 101 0
-1 -1 12 151 101 0
-0.5 -1 11.5 150 100 0
0 -1 11 149 99 0
1 -1 11 149 99 0
1 -1 12 151 101 0
0 -1 12 151 101 0
0.5 -1 11.5 150 100 0
1 -1 11 149 99 0
2 -1 11 149 99 0
2 -1 12 151 101 0
1 -1 12 151 101 0
1.5 -1 11.5 150 100 0
2 0 7 132 88 0
3 0 7 133 88 0
3 0 8 135 90 0
2 0 8 132 88 0
2.5 0 7.5 133 88 0
2 0 6 130 86 0
3 0 6 130 86 0
3 0 7 133 88 0
2 0 7 132 88 0
2.5 0 6.5 131 87 0
-2 0 7 132 88 0
-1 0 7 131 87 0
-1 0 8 128 85 0
-2 0 8 131 87 0
-1.5 0 7.5 130 87 0
-2 0 6 129 86 0
-1 0 6 129 86 0
-1 0 7 131 87 0
-2 0 7 132 88 0
-1.5 0 6.5 130 87 0
2 0 5 126 210 0
3 0 5 126 210 0
3 0 6 130 217 0
2 0 6 130 216 0
2.5 0 5.5 128 213 0
-2 0 5 126 210 0
-1 0 5 126 210 0
-1 0 6 129 215 0
-2 0 6 129 215 0
-1.5 0 5.5 127 213 0
3 4 0 1
3 4 1 2
3 4 2 3
3 4 3 0
3 9 5 6
3 9 6 7
3 9 7 8
3 9 8 5
3 14 10 11
3 14 11 12
3 14 12 13
3 14 13 10
3 19 15 16
3 19 16 17
3 19 17 18
3 19 18 15
3 24 20 21
3 24 21 22
3 24 22 23
3 24 23 20
3 29 25 26
3 29 26 27
3 29 27 28
3 29 28 25
3 34 30 31
3 34 31 32
3 34 32 33
3 34 33 30
3 39 35 36
3 39 36 37
3 39 37 38
3 39 38 35
3 44 40 41
3 44 41 42
3 44 42 43
3 44 43 40
3 49 45 46
3 49 46 47
3 49 47 48
3 49 48 45
3 54 50 51
3 54 51 52
3 54 52 53
3 54 53 50
3 59 55 56
3 59 56 57
3 59 57 58
3 59 58 55
3 64 60 61
3 64 61 62
3 64 62 63
3 64 63 60
3 69 65 66
3 69 66 67
3 69 67 68
3 69 68 65
3 74 70 71
3 74 71 72
3 74 72 73
3 74 73 70
3 79 75 76
3 79 76 77
3 79 77 78
3 79 78 75
3 84 80 81
3 84 81 82
3 84 82 83
3 84 83 80
3 89 85 86
3 89 86 87
3 89 87 88
3 89 88 85
3 94 90 91
3 94 91 92
3 94 92 93
3 94 93 90
3 99 95 96
3 99 96 97
3 99 97 98
3 99 98 95
3 104 100 101
3 104 101 102
3 104 102 103
3 104 103 100
3 109 105 106
3 109 106 107
3 109 107 108
3 109 108 105
3 114 110 111
3 114 111 112
3 114 112 113
3 114 113 110
3 119 115 116
3 119 116 117
3 119 117 118
3 119 118 115
3 124 120 121
3 124 121 122
3 124 122 123
3 124 123 120
3 129 125 126
3 129 126 127
3 129 127 128
3 129 128 125
3 134 130 131
3 134 131 132
3 134 132 133
3 134 133 130
3 139 135 136
3 139 136 137
3 139 137 138
3 139 138 135
3 144 140 141
3 144 141 142
3 144 142 143
3 144 143 140
3 149 145 146
3 149 146 147
3 149 147 148
3 149 148 145
3 154 150 151
3 154 151 152
3 154 152 153
3 154 153 150
3 159 155 156
3 159 156 157
3 159 157 158
3 159 158 155
3 164 160 161
3 164 161 162
3 164 162 163
3 164 163 160
3 169 165 166
3 169 166 167
3 169 167 168
3 169 168 165
3 174 170 171
3 174 171 172
3 174 172 173
3 174 173 170
3 179 175 176
3 179 176 177
3 179 177 178
3 179 178 175
3 184 180 181
3 184 181 182
3 184 182 183
3 184 183 180
3 189 185 186
3 189 186 187
3 189 187 188
3 189 188 185
3 194 190 191
3 194 191 192
3 194 192 193
3 194 193 190
3 199 195 196
3 199 196 197
3 199 197 198
3 199 198 195
3 204 200 201
3 204 201 202
3 204 202 203
3 204 203 200
3 209 205 206
3 209 206 207
3 209 207 208
3 209 208 205
3 214 210 211
3 214 211 212
3 214 212 213
3 214 213 210
3 219 215 216
3 219 216 217
3 219 217 218
3 219 218 215
3 224 220 221
3 224 221 222
3 224 222 223
3 224 223 220
3 229 225 226
3 229 226 227
3 229 227 228
3 229 228 225
3 234 230 231
3 234 231 232
3 234 232 233
3 234 233 230
3 239 235 236
3 239 236 237
3 239 237 238
3 239 238 235
3 244 240 241
3 244 241 242
3 244 242 243
3 244 243 240
3 249 245 246
3 249 246 247
3 249 247 248
3 249 248 245
3 254 250 251
3 254 251 252
3 254 252 253
3 254 253 250
3 259 255 256
3 259 256 257
3 259 257 258
3 259 258 255
3 264 260 261
3 264 261 262
3 264 262 263
3 264 263 260
3 269 265 266
3 269 266 267
3 269 267 268
3 269 268 265
3 274 270 271
3 274 271 272
3 274 272 273
3 274 273 270
3 279 275 276
3 279 276 277
3 279 277 278
3 279 278 275
3 284 280 281
3 284 281 282
3 284 282 283
3 284 283 280
3 289 285 286
3 289 286 287
3 289 287 288
3 289 288 285
3 294 290 291
3 294 291 292
3 294 292 293
3 294 293 290
3 299 295 296
3 299 296 297
3 299 297 298
3 299 298 295
3 304 300 301
3 304 301 302
3 304 302 303
3 304 303 300
3 309 305 306
3 309 306 307
3 309 307 308
3 309 308 305
3 314 310 311
3 314 311 312
3 314 312 313
3 314 313 310
3 319 315 316
3 319 316 317
3 319 317 318
3 319 318 315
3 324 320 321
3 324 321 322
3 324 322 323
3 324 323 320
3 329 325 326
3 329 326 327
3 329 327 328
3 329 328 325
3 334 330 331
3 334 331 332
3 334 332 333
3 334 333 330
3 339 335 336
3 339 336 337
3 339 337 338
3 339 338 335
3 344 340 341
3 344 341 342
3 344 342 343
3 344 343 340
3 349 345 346
3 349 346 347
3 349 347 348
3 349 348 345
3 354 350 351
3 354 351 352
3 354 352 353
3 354 353 350
3 359 355 356
3 359 356 357
3 359 357 358
3 359 358 355
3 364 360 361
3 364 361 362
3 364 362 363
3 364 363 360
3 369 365 366
3 369 366 367
3 369 367 368
3 369 368 365
3 374 370 371
3 374 371 372
3 374 372 373
3 374 373 370
3 379 375 376
3 379 376 377
3 379 377 378
3 379 378 375
3 384 380 381
3 384 381 382
3 384 382 383
3 384 383 380
3 389 385 386
3 389 386 387
3 389 387 388
3 389 388 385
3 394 390 391
3 394 391 392
3 394 392 393
3 394 393 390
3 399 395 396
3 399 396 397
3 399 397 398
3 399 398 395
3 404 400 401
3 404 401 402
3 404 402 403
3 404 403 400
3 409 405 406
3 409 406 407
3 409 407 408
3 409 408 405
3 414 410 411
3 414 411 412
3 414 412 413
3 414 413 410
3 419 415 416
3 419 416 417
3 419 417 418
3 419 418 415
3 424 420 421
3 424 421 422
3 424 422 423
3 424 423 420
3 429 425 426
3 429 426 427
3 429 427 428
3 429 428 425
3 434 430 431
3 434 431 432
3 434 432 433
3 434 433 430
3 439 435 436
3 439 436 437
3 439 437 438
3 439 438 435
3 444 440 441
3 444 441 442
3 444 442 443
3 444 443 440
3 449 445 446
3 449 446 447
3 449 447 448
3 449 448 445
3 454 450 451
3 454 451 452
3 454 452 453
3 454 453 450
3 459 455 456
3 459 456 457
3 459 457 458
3 459 458 455
3 464 460 461
3 464 461 462
3 464 462 463
3 464 463 460
3 469 465 466
3 469 466 467
3 469 467 468
3 469 468 465
3 474 470 471
3 474 471 472
3 474 472 473
3 474 473 470
3 479 475 476
3 479 476 477
3 479 477 478
3 479 478 475
3 484 480 481
3 484 481 482
3 484 482 483
3 484 483 480
3 489 485 486
3 489 486 487
3 489 487 488
3 489 488 485
3 494 490 491
3 494 491 492
3 494 492 493
3 494 493 490
3 499 495 496
3 499 496 497
3 499 497 498
3 499 498 495
3 504 500 501
3 504 501 502
3 504 502 503
3 504 503 500
3 509 505 506
3 509 506 507
3 509 507 508
3 509 508 505
3 514 510 511
3 514 511 512
3 514 512 513
3 514 513 510
3 519 515 516
3 519 516 517
3 519 517 518
3 519 518 515
3 524 520 521
3 524 521 522
3 524 522 523
3 524 523 520
3 529 525 526
3 529 526 527
3 529 527 528
3 529 528 525
3 534 530 531
3 534 531 532
3 534 532 533
3 534 533 530
3 539 535 536
3 539 536 537
3 539 537 538
3 539 538 535
3 544 540 541
3 544 541 542
3 544 542 543
3 544 543 540
3 549 545 546
3 549 546 547
3 549 547 548
3 549 548 545
3 554 550 551
3 554 551 552
3 554 552 553
3 554 553 550
3 559 555 556
3 559 556 557
3 559 557 558
3 559 558 555
3 564 560 561
3 564 561 562
3 564 562 563
3 564 563 560
3 569 565 566
3 569 566 567
3 569 567 568
3 569 568 565
3 574 570 571
3 574 571 572
3 574 572 573
3 574 573 570
3 579 575 576
3 579 576 577
3 579 577 578
3 579 578 575
3 584 580 581
3 584 581 582
3 584 582 583
3 584 583 580
3 589 585 586
3 589 586 587
3 589 587 588
3 589 588 585
3 594 590 591
3 594 591 592
3 594 592 593
3 594 593 590
3 599 595 596
3 599 596 597
3 599 597 598
3 599 598 595
3 604 600 601
3 604 601 602
3 604 602 603
3 604 603 600
3 609 605 606
3 609 606 607
3 609 607 608
3 609 608 605
3 614 610 611
3 614 611 612
3 614 612 613
3 614 613 610
3 619 615 616
3 619 616 617
3 619 617 618
3 619 618 615
3 624 620 621
3 624 621 622
3 624 622 623
3 624 623 620
3 629 625 626
3 629 626 627
3 629 627 628
3 629 628 625
3 634 630 631
3 634 631 632
3 634 632 633
3 634 633 630
3 639 635 636
3 639 636 637
3 639 637 638
3 639 638 635
3 644 640 641
3 644 641 642
3 644 642 643
3 644 643 640
3 649 645 646
3 649 646 647
3 649 647 648
3 649 648 645
3 654 650 651
3 654 651 652
3 654 652 653
3 654 653 650
3 659 655 656
3 659 656 657
3 659 657 658
3 659 658 655
3 664 660 661
3 664 661 662
3 664 662 663
3 664 663 660
3 669 665 666
3 669 666 667
3 669 667 668
3 669 668 665
3 674 670 671
3 674 671 672
3 674 672 673
3 674 673 670
3 679 675 676
3 679 676 677
3 679 677 678
3 679 678 675
3 684 680 681
3 684 681 682
3 684 682 683
3 684 683 680
3 689 685 686
3 689 686 687
3 689 687 688
3 689 688 685
3 694 690 691
3 694 691 692
3 694 692 693
3 694 693 690
3 699 695 696
3 699 696 697
3 699 697 698
3 699 698 695
