# MagicaVoxel @ ephtracy

# material
mtllib deer.mtl
usemtl palette

# normals
vn -1 0 0
vn 1 0 0
vn 0 0 1
vn 0 0 -1
vn 0 -1 0
vn 0 1 0

# texcoords
vt 0.693359 0.5
vt 0.720703 0.5
vt 0.724609 0.5
vt 0.751953 0.5
vt 0.755859 0.5

# verts
v -2 11 4
v -2 11 3
v -2 12 4
v -2 12 3
v -1 0 3
v -1 0 2
v -1 0 -2
v -1 0 -3
v -1 1 3
v -1 1 2
v -1 1 -2
v -1 1 -3
v -1 2 -2
v -1 2 -3
v -1 3 -2
v -1 3 -3
v -1 4 2
v -1 4 1
v -1 4 -3
v -1 4 -4
v -1 5 3
v -1 5 2
v -1 6 4
v -1 6 3
v -1 6 2
v -1 6 1
v -1 6 -2
v -1 7 5
v -1 7 4
v -1 7 3
v -1 7 1
v -1 7 -0
v -1 7 -1
v -1 7 -2
v -1 7 -3
v -1 7 -4
v -1 7 -5
v -1 8 3
v -1 8 2
v -1 8 -0
v -1 8 -1
v -1 8 -2
v -1 8 -3
v -1 8 -4
v -1 8 -5
v -1 9 3
v -1 9 2
v -1 9 -0
v -1 10 7
v -1 10 6
v -1 10 5
v -1 10 4
v -1 11 7
v -1 11 6
v -1 11 5
v -1 11 4
v -1 11 3
v -1 12 7
v -1 12 6
v -1 12 5
v -1 12 4
v 0 0 -4
v 0 0 -5
v 0 1 -4
v 0 1 -5
v 0 3 -3
v 0 3 -4
v 0 4 -3
v 0 4 -4
v 0 4 -5
v 0 0 -2
v 0 0 -3
v 0 1 -2
v 0 1 -3
v 0 2 -2
v 0 2 -3
v 0 3 -2
v 0 3 -3
v 0 4 -2
v 0 4 -3
v 1 0 3
v 1 0 2
v 1 0 -4
v 1 0 -5
v 1 1 3
v 1 1 2
v 1 1 -4
v 1 1 -5
v 1 2 3
v 1 2 2
v 1 3 3
v 1 3 2
v 1 3 -3
v 1 3 -4
v 1 4 3
v 1 4 2
v 1 4 1
v 1 4 -2
v 1 4 -3
v 1 4 -4
v 1 4 -5
v 1 5 -3
v 1 5 -4
v 1 6 4
v 1 6 3
v 1 6 1
v 1 6 -2
v 1 6 -3
v 1 6 -4
v 1 7 5
v 1 7 4
v 1 7 3
v 1 7 2
v 1 7 1
v 1 7 -2
v 1 7 -3
v 1 7 -4
v 1 7 -5
v 1 8 3
v 1 8 2
v 1 8 1
v 1 8 -0
v 1 8 -2
v 1 8 -3
v 1 8 -4
v 1 8 -5
v 1 9 3
v 1 9 2
v 1 9 1
v 1 9 -0
v 1 10 7
v 1 10 6
v 1 10 5
v 1 10 4
v 1 11 7
v 1 11 6
v 1 11 5
v 1 11 4
v 1 11 3
v 1 12 7
v 1 12 6
v 1 12 5
v 1 12 4
v 2 11 4
v 2 11 3
v 2 12 4
v 2 12 3
v -1 10 7
v -1 11 7
v -1 12 7
v 1 10 7
v 1 11 7
v 1 12 7
v -1 7 5
v -1 10 5
v 1 7 5
v 1 10 5
v -2 11 4
v -2 12 4
v -1 6 4
v -1 7 4
v -1 11 4
v -1 12 4
v 1 6 4
v 1 7 4
v 1 11 4
v 1 12 4
v 2 11 4
v 2 12 4
v -1 0 3
v -1 1 3
v -1 5 3
v -1 6 3
v 0 1 3
v 0 2 3
v 0 3 3
v 0 4 3
v 0 5 3
v 0 6 3
v 1 0 3
v 1 1 3
v 1 2 3
v 1 3 3
v 1 4 3
v 1 6 3
v -1 0 -2
v -1 1 -2
v -1 2 -2
v -1 3 -2
v -1 6 -2
v 0 0 -2
v 0 1 -2
v 0 2 -2
v 0 3 -2
v 0 4 -2
v 1 4 -2
v 1 6 -2
v 0 3 -3
v 0 4 -3
v 1 3 -3
v 1 4 -3
v 0 0 -4
v 0 1 -4
v 0 3 -4
v 1 0 -4
v 1 1 -4
v 1 3 -4
v -2 11 3
v -2 12 3
v -1 9 3
v -1 11 3
v 0 9 3
v 1 9 3
v 1 11 3
v 2 11 3
v 2 12 3
v -1 0 2
v -1 1 2
v -1 4 2
v 0 1 2
v 0 2 2
v 0 3 2
v 0 4 2
v 1 0 2
v 1 1 2
v 1 2 2
v 1 3 2
v 1 4 2
v -1 4 1
v -1 6 1
v 1 4 1
v 1 6 1
v -1 8 -0
v -1 9 -0
v 0 8 -0
v 1 8 -0
v 1 9 -0
v -1 0 -3
v -1 1 -3
v -1 2 -3
v -1 3 -3
v -1 4 -3
v 0 0 -3
v 0 1 -3
v 0 2 -3
v 0 3 -3
v 0 4 -3
v -1 4 -4
v -1 7 -4
v 0 4 -4
v 0 5 -4
v 0 6 -4
v 1 4 -4
v 1 5 -4
v 1 6 -4
v 1 7 -4
v -1 7 -5
v -1 8 -5
v 0 0 -5
v 0 1 -5
v 0 4 -5
v 1 0 -5
v 1 1 -5
v 1 4 -5
v 1 7 -5
v 1 8 -5
v -1 0 3
v 1 0 3
v -1 0 2
v 1 0 2
v -1 0 -2
v 0 0 -2
v -1 0 -3
v 0 0 -3
v 0 0 -4
v 1 0 -4
v 0 0 -5
v 1 0 -5
v 0 3 -3
v 1 3 -3
v 0 3 -4
v 1 3 -4
v -1 4 2
v 0 4 2
v 1 4 2
v -1 4 1
v 1 4 1
v 0 4 -2
v 1 4 -2
v -1 4 -3
v 0 4 -3
v 1 4 -3
v -1 4 -4
v 0 4 -4
v -1 6 4
v 1 6 4
v -1 6 3
v 0 6 3
v 1 6 3
v -1 6 1
v 1 6 1
v -1 6 -2
v 1 6 -2
v -1 7 5
v 1 7 5
v -1 7 4
v 1 7 4
v -1 7 -4
v 1 7 -4
v -1 7 -5
v 1 7 -5
v -1 10 7
v 1 10 7
v -1 10 6
v 1 10 6
v -1 10 5
v 1 10 5
v -2 11 4
v -1 11 4
v 1 11 4
v 2 11 4
v -2 11 3
v -1 11 3
v 1 11 3
v 2 11 3
v 0 4 -4
v 1 4 -4
v 0 4 -5
v 1 4 -5
v -1 8 -0
v 0 8 -0
v 1 8 -0
v -1 8 -1
v 0 8 -1
v -1 8 -2
v 0 8 -2
v 1 8 -2
v -1 8 -3
v 0 8 -3
v 1 8 -3
v -1 8 -4
v 1 8 -4
v -1 8 -5
v 1 8 -5
v -1 9 3
v 0 9 3
v 1 9 3
v -1 9 2
v 0 9 2
v 1 9 2
v 0 9 1
v 1 9 1
v -1 9 -0
v 1 9 -0
v -1 12 7
v 1 12 7
v -1 12 6
v 1 12 6
v -1 12 5
v 1 12 5
v -2 12 4
v -1 12 4
v 1 12 4
v 2 12 4
v -2 12 3
v 2 12 3

# faces
f 3/4/1 2/4/1 1/4/1
f 4/4/1 2/4/1 3/4/1
f 9/5/1 6/5/1 5/5/1
f 10/5/1 6/5/1 9/5/1
f 11/5/1 8/5/1 7/5/1
f 12/5/1 8/5/1 11/5/1
f 13/4/1 12/4/1 11/4/1
f 14/4/1 12/4/1 13/4/1
f 15/2/1 14/2/1 13/2/1
f 16/2/1 14/2/1 15/2/1
f 17/4/1 10/4/1 9/4/1
f 19/4/1 16/4/1 15/4/1
f 21/4/1 17/4/1 9/4/1
f 21/4/1 18/4/1 17/4/1
f 22/4/1 18/4/1 21/4/1
f 24/2/1 22/2/1 21/2/1
f 25/4/1 18/4/1 22/4/1
f 25/2/1 22/2/1 24/2/1
f 26/4/1 18/4/1 25/4/1
f 27/4/1 19/4/1 15/4/1
f 27/4/1 20/4/1 19/4/1
f 29/3/1 24/3/1 23/3/1
f 30/4/1 26/4/1 25/4/1
f 30/4/1 25/4/1 24/4/1
f 30/3/1 24/3/1 29/3/1
f 31/3/1 27/3/1 26/3/1
f 31/4/1 26/4/1 30/4/1
f 32/3/1 27/3/1 31/3/1
f 33/3/1 27/3/1 32/3/1
f 34/4/1 20/4/1 27/4/1
f 34/3/1 27/3/1 33/3/1
f 35/4/1 20/4/1 34/4/1
f 36/4/1 20/4/1 35/4/1
f 38/4/1 30/4/1 29/4/1
f 38/4/1 31/4/1 30/4/1
f 38/4/1 32/4/1 31/4/1
f 39/4/1 32/4/1 38/4/1
f 40/5/1 33/5/1 32/5/1
f 40/4/1 32/4/1 39/4/1
f 41/4/1 34/4/1 33/4/1
f 41/5/1 33/5/1 40/5/1
f 42/2/1 35/2/1 34/2/1
f 42/4/1 34/4/1 41/4/1
f 43/4/1 36/4/1 35/4/1
f 43/2/1 35/2/1 42/2/1
f 44/3/1 37/3/1 36/3/1
f 44/4/1 36/4/1 43/4/1
f 45/3/1 37/3/1 44/3/1
f 46/2/1 39/2/1 38/2/1
f 46/4/1 38/4/1 29/4/1
f 47/4/1 40/4/1 39/4/1
f 47/2/1 39/2/1 46/2/1
f 48/4/1 40/4/1 47/4/1
f 51/3/1 29/3/1 28/3/1
f 52/4/1 46/4/1 29/4/1
f 52/3/1 29/3/1 51/3/1
f 53/3/1 50/3/1 49/3/1
f 54/4/1 51/4/1 50/4/1
f 54/3/1 50/3/1 53/3/1
f 54/4/1 52/4/1 51/4/1
f 55/4/1 52/4/1 54/4/1
f 56/4/1 46/4/1 52/4/1
f 56/4/1 52/4/1 55/4/1
f 57/4/1 46/4/1 56/4/1
f 58/1/1 54/1/1 53/1/1
f 59/4/1 55/4/1 54/4/1
f 59/1/1 54/1/1 58/1/1
f 60/2/1 56/2/1 55/2/1
f 60/4/1 55/4/1 59/4/1
f 61/2/1 56/2/1 60/2/1
f 64/5/1 63/5/1 62/5/1
f 65/5/1 63/5/1 64/5/1
f 67/4/1 65/4/1 64/4/1
f 68/4/1 67/4/1 66/4/1
f 69/4/1 65/4/1 67/4/1
f 69/4/1 67/4/1 68/4/1
f 70/4/1 65/4/1 69/4/1
f 71/5/2 72/5/2 73/5/2
f 73/5/2 72/5/2 74/5/2
f 73/4/2 74/4/2 75/4/2
f 75/4/2 74/4/2 76/4/2
f 75/2/2 76/2/2 77/2/2
f 77/2/2 76/2/2 78/2/2
f 77/4/2 78/4/2 79/4/2
f 79/4/2 78/4/2 80/4/2
f 81/5/2 82/5/2 85/5/2
f 85/5/2 82/5/2 86/5/2
f 83/5/2 84/5/2 87/5/2
f 87/5/2 84/5/2 88/5/2
f 85/2/2 86/2/2 89/2/2
f 89/2/2 86/2/2 90/2/2
f 89/4/2 90/4/2 91/4/2
f 91/4/2 90/4/2 92/4/2
f 87/4/2 88/4/2 94/4/2
f 91/2/2 92/2/2 95/2/2
f 95/2/2 92/2/2 96/2/2
f 93/4/2 94/4/2 99/4/2
f 94/4/2 88/4/2 100/4/2
f 99/4/2 94/4/2 100/4/2
f 100/4/2 88/4/2 101/4/2
f 98/4/2 99/4/2 102/4/2
f 99/4/2 100/4/2 102/4/2
f 102/4/2 100/4/2 103/4/2
f 96/4/2 97/4/2 105/4/2
f 95/4/2 96/4/2 105/4/2
f 105/4/2 97/4/2 106/4/2
f 98/4/2 102/4/2 107/4/2
f 102/2/2 103/2/2 108/2/2
f 107/4/2 102/4/2 108/4/2
f 108/2/2 103/2/2 109/2/2
f 104/3/2 105/3/2 111/3/2
f 105/4/2 106/4/2 112/4/2
f 111/3/2 105/3/2 112/3/2
f 112/4/2 106/4/2 113/4/2
f 106/3/2 107/3/2 114/3/2
f 113/4/2 106/4/2 114/4/2
f 107/4/2 108/4/2 115/4/2
f 114/3/2 107/3/2 115/3/2
f 108/4/2 109/4/2 115/4/2
f 115/4/2 109/4/2 116/4/2
f 116/4/2 109/4/2 117/4/2
f 112/2/2 113/2/2 119/2/2
f 111/4/2 112/4/2 119/4/2
f 113/4/2 114/4/2 120/4/2
f 119/2/2 113/2/2 120/2/2
f 114/4/2 115/4/2 120/4/2
f 120/4/2 115/4/2 121/4/2
f 121/4/2 115/4/2 122/4/2
f 115/5/2 116/5/2 123/5/2
f 122/4/2 115/4/2 123/4/2
f 116/4/2 117/4/2 124/4/2
f 123/5/2 116/5/2 124/5/2
f 117/3/2 118/3/2 125/3/2
f 124/4/2 117/4/2 125/4/2
f 125/3/2 118/3/2 126/3/2
f 111/4/2 119/4/2 127/4/2
f 119/4/2 120/4/2 127/4/2
f 120/5/2 121/5/2 128/5/2
f 127/4/2 120/4/2 128/4/2
f 121/4/2 122/4/2 129/4/2
f 128/5/2 121/5/2 129/5/2
f 129/4/2 122/4/2 130/4/2
f 110/3/2 111/3/2 133/3/2
f 111/4/2 127/4/2 134/4/2
f 133/3/2 111/3/2 134/3/2
f 131/3/2 132/3/2 135/3/2
f 132/4/2 133/4/2 136/4/2
f 135/3/2 132/3/2 136/3/2
f 133/4/2 134/4/2 136/4/2
f 136/4/2 134/4/2 137/4/2
f 134/4/2 127/4/2 138/4/2
f 137/4/2 134/4/2 138/4/2
f 138/4/2 127/4/2 139/4/2
f 135/1/2 136/1/2 140/1/2
f 136/4/2 137/4/2 141/4/2
f 140/1/2 136/1/2 141/1/2
f 137/2/2 138/2/2 142/2/2
f 141/4/2 137/4/2 142/4/2
f 142/2/2 138/2/2 143/2/2
f 144/4/2 145/4/2 146/4/2
f 146/4/2 145/4/2 147/4/2
f 151/3/3 149/3/3 148/3/3
f 152/1/3 150/1/3 149/1/3
f 152/3/3 149/3/3 151/3/3
f 153/1/3 150/1/3 152/1/3
f 156/3/3 155/3/3 154/3/3
f 157/3/3 155/3/3 156/3/3
f 162/4/3 159/4/3 158/4/3
f 163/4/3 159/4/3 162/4/3
f 164/3/3 161/3/3 160/3/3
f 165/3/3 161/3/3 164/3/3
f 168/4/3 167/4/3 166/4/3
f 169/4/3 167/4/3 168/4/3
f 174/5/3 171/5/3 170/5/3
f 174/4/3 172/4/3 171/4/3
f 175/4/3 172/4/3 174/4/3
f 176/4/3 172/4/3 175/4/3
f 177/4/3 172/4/3 176/4/3
f 178/2/3 173/2/3 172/2/3
f 178/4/3 172/4/3 177/4/3
f 179/2/3 173/2/3 178/2/3
f 180/5/3 174/5/3 170/5/3
f 181/2/3 175/2/3 174/2/3
f 181/5/3 174/5/3 180/5/3
f 182/4/3 176/4/3 175/4/3
f 182/2/3 175/2/3 181/2/3
f 183/2/3 177/2/3 176/2/3
f 183/4/3 176/4/3 182/4/3
f 184/4/3 178/4/3 177/4/3
f 184/2/3 177/2/3 183/2/3
f 184/4/3 179/4/3 178/4/3
f 185/4/3 179/4/3 184/4/3
f 191/5/3 187/5/3 186/5/3
f 192/4/3 188/4/3 187/4/3
f 192/5/3 187/5/3 191/5/3
f 193/2/3 189/2/3 188/2/3
f 193/4/3 188/4/3 192/4/3
f 194/4/3 190/4/3 189/4/3
f 194/2/3 189/2/3 193/2/3
f 195/4/3 190/4/3 194/4/3
f 196/4/3 190/4/3 195/4/3
f 197/4/3 190/4/3 196/4/3
f 200/4/3 199/4/3 198/4/3
f 201/4/3 199/4/3 200/4/3
f 205/5/3 203/5/3 202/5/3
f 206/4/3 204/4/3 203/4/3
f 206/5/3 203/5/3 205/5/3
f 207/4/3 204/4/3 206/4/3
f 208/4/4 209/4/4 211/4/4
f 210/4/4 211/4/4 212/4/4
f 212/4/4 211/4/4 213/4/4
f 211/4/4 209/4/4 214/4/4
f 213/4/4 211/4/4 214/4/4
f 214/4/4 209/4/4 215/4/4
f 215/4/4 209/4/4 216/4/4
f 217/5/4 218/5/4 220/5/4
f 218/4/4 219/4/4 220/4/4
f 220/4/4 219/4/4 221/4/4
f 221/4/4 219/4/4 222/4/4
f 222/4/4 219/4/4 223/4/4
f 217/5/4 220/5/4 224/5/4
f 220/2/4 221/2/4 225/2/4
f 224/5/4 220/5/4 225/5/4
f 221/4/4 222/4/4 226/4/4
f 225/2/4 221/2/4 226/2/4
f 222/2/4 223/2/4 227/2/4
f 226/4/4 222/4/4 227/4/4
f 227/2/4 223/2/4 228/2/4
f 229/4/4 230/4/4 231/4/4
f 231/4/4 230/4/4 232/4/4
f 233/4/4 234/4/4 235/4/4
f 235/4/4 234/4/4 236/4/4
f 236/4/4 234/4/4 237/4/4
f 238/5/4 239/5/4 243/5/4
f 239/4/4 240/4/4 244/4/4
f 243/5/4 239/5/4 244/5/4
f 240/2/4 241/2/4 245/2/4
f 244/4/4 240/4/4 245/4/4
f 241/4/4 242/4/4 246/4/4
f 245/2/4 241/2/4 246/2/4
f 246/4/4 242/4/4 247/4/4
f 248/4/4 249/4/4 250/4/4
f 250/4/4 249/4/4 251/4/4
f 251/4/4 249/4/4 252/4/4
f 250/4/4 251/4/4 253/4/4
f 251/2/4 252/2/4 254/2/4
f 253/4/4 251/4/4 254/4/4
f 252/4/4 249/4/4 255/4/4
f 254/2/4 252/2/4 255/2/4
f 255/4/4 249/4/4 256/4/4
f 259/5/4 260/5/4 262/5/4
f 260/4/4 261/4/4 263/4/4
f 262/5/4 260/5/4 263/5/4
f 263/4/4 261/4/4 264/4/4
f 257/3/4 258/3/4 265/3/4
f 265/3/4 258/3/4 266/3/4
f 269/5/5 268/5/5 267/5/5
f 270/5/5 268/5/5 269/5/5
f 273/5/5 272/5/5 271/5/5
f 274/5/5 272/5/5 273/5/5
f 277/5/5 276/5/5 275/5/5
f 278/5/5 276/5/5 277/5/5
f 281/4/5 280/4/5 279/4/5
f 282/4/5 280/4/5 281/4/5
f 286/4/5 284/4/5 283/4/5
f 286/4/5 285/4/5 284/4/5
f 287/4/5 285/4/5 286/4/5
f 291/4/5 289/4/5 288/4/5
f 292/4/5 289/4/5 291/4/5
f 293/4/5 291/4/5 290/4/5
f 294/4/5 291/4/5 293/4/5
f 297/3/5 296/3/5 295/3/5
f 298/3/5 296/3/5 297/3/5
f 299/3/5 296/3/5 298/3/5
f 302/3/5 301/3/5 300/3/5
f 303/3/5 301/3/5 302/3/5
f 306/3/5 305/3/5 304/3/5
f 307/3/5 305/3/5 306/3/5
f 310/3/5 309/3/5 308/3/5
f 311/3/5 309/3/5 310/3/5
f 314/3/5 313/3/5 312/3/5
f 315/3/5 313/3/5 314/3/5
f 316/4/5 315/4/5 314/4/5
f 317/4/5 315/4/5 316/4/5
f 322/4/5 319/4/5 318/4/5
f 323/4/5 319/4/5 322/4/5
f 324/4/5 321/4/5 320/4/5
f 325/4/5 321/4/5 324/4/5
f 326/4/6 327/4/6 328/4/6
f 328/4/6 327/4/6 329/4/6
f 330/5/6 331/5/6 333/5/6
f 331/4/6 332/4/6 334/4/6
f 333/5/6 331/5/6 334/5/6
f 333/4/6 334/4/6 335/4/6
f 334/4/6 332/4/6 336/4/6
f 335/4/6 334/4/6 336/4/6
f 336/4/6 332/4/6 337/4/6
f 335/2/6 336/2/6 338/2/6
f 336/5/6 337/5/6 339/5/6
f 338/2/6 336/2/6 339/2/6
f 339/5/6 337/5/6 340/5/6
f 338/4/6 339/4/6 341/4/6
f 339/4/6 340/4/6 341/4/6
f 341/4/6 340/4/6 342/4/6
f 341/3/6 342/3/6 343/3/6
f 343/3/6 342/3/6 344/3/6
f 345/2/6 346/2/6 348/2/6
f 346/4/6 347/4/6 349/4/6
f 348/2/6 346/2/6 349/2/6
f 349/4/6 347/4/6 350/4/6
f 348/4/6 349/4/6 351/4/6
f 349/5/6 350/5/6 351/5/6
f 351/5/6 350/5/6 352/5/6
f 348/4/6 351/4/6 353/4/6
f 351/4/6 352/4/6 353/4/6
f 353/4/6 352/4/6 354/4/6
f 355/1/6 356/1/6 357/1/6
f 357/1/6 356/1/6 358/1/6
f 357/4/6 358/4/6 359/4/6
f 359/4/6 358/4/6 360/4/6
f 359/2/6 360/2/6 362/2/6
f 362/2/6 360/2/6 363/2/6
f 362/4/6 363/4/6 365/4/6
f 363/4/6 364/4/6 365/4/6
f 361/4/6 362/4/6 365/4/6
f 365/4/6 364/4/6 366/4/6
