# MagicaVoxel @ ephtracy

# material
mtllib deer_walking_3.mtl
usemtl palette

# normals
vn -1 0 0
vn 1 0 0
vn 0 0 1
vn 0 0 -1
vn 0 -1 0
vn 0 1 0

# texcoords
vt 0.693359 0.5
vt 0.720703 0.5
vt 0.724609 0.5
vt 0.751953 0.5
vt 0.755859 0.5

# verts
v -2 11 4
v -2 11 3
v -2 12 4
v -2 12 3
v -1 0 4
v -1 0 3
v -1 0 -4
v -1 0 -5
v -1 1 4
v -1 1 3
v -1 1 -4
v -1 1 -5
v -1 2 3
v -1 2 2
v -1 2 -4
v -1 2 -5
v -1 3 4
v -1 3 3
v -1 3 -3
v -1 3 -4
v -1 3 -5
v -1 4 2
v -1 4 1
v -1 4 -2
v -1 4 -3
v -1 4 -4
v -1 4 -5
v -1 5 3
v -1 5 2
v -1 6 4
v -1 6 3
v -1 6 2
v -1 6 1
v -1 6 -2
v -1 7 5
v -1 7 4
v -1 7 3
v -1 7 1
v -1 7 -0
v -1 7 -1
v -1 7 -2
v -1 7 -3
v -1 7 -4
v -1 7 -5
v -1 8 3
v -1 8 2
v -1 8 -0
v -1 8 -1
v -1 8 -2
v -1 8 -3
v -1 8 -4
v -1 8 -5
v -1 9 3
v -1 9 2
v -1 9 -0
v -1 10 7
v -1 10 6
v -1 10 5
v -1 10 4
v -1 11 7
v -1 11 6
v -1 11 5
v -1 11 4
v -1 11 3
v -1 12 7
v -1 12 6
v -1 12 5
v -1 12 4
v 0 0 1
v 0 0 -0
v 0 0 -1
v 0 0 -2
v 0 1 1
v 0 1 -0
v 0 1 -1
v 0 1 -2
v 0 2 1
v 0 2 -0
v 0 2 -2
v 0 2 -3
v 0 3 2
v 0 3 1
v 0 3 -1
v 0 3 -2
v 0 3 -3
v 0 4 2
v 0 4 1
v 0 4 -0
v 0 4 -2
v 0 4 -3
v 0 0 4
v 0 0 3
v 0 0 -4
v 0 0 -5
v 0 1 4
v 0 1 3
v 0 1 -4
v 0 1 -5
v 0 2 3
v 0 2 2
v 0 2 -4
v 0 2 -5
v 0 3 4
v 0 3 3
v 0 3 2
v 0 3 -3
v 0 3 -4
v 0 3 -5
v 0 4 3
v 0 4 2
v 0 4 -3
v 0 4 -4
v 0 4 -5
v 1 0 1
v 1 0 -0
v 1 0 -1
v 1 0 -2
v 1 1 1
v 1 1 -0
v 1 1 -1
v 1 1 -2
v 1 2 1
v 1 2 -0
v 1 2 -2
v 1 2 -3
v 1 3 2
v 1 3 1
v 1 3 -1
v 1 3 -2
v 1 4 3
v 1 4 2
v 1 4 1
v 1 4 -0
v 1 4 -3
v 1 4 -4
v 1 5 -3
v 1 5 -4
v 1 6 4
v 1 6 3
v 1 6 1
v 1 6 -2
v 1 6 -3
v 1 6 -4
v 1 7 5
v 1 7 4
v 1 7 3
v 1 7 2
v 1 7 1
v 1 7 -2
v 1 7 -3
v 1 7 -4
v 1 7 -5
v 1 8 3
v 1 8 2
v 1 8 1
v 1 8 -0
v 1 8 -2
v 1 8 -3
v 1 8 -4
v 1 8 -5
v 1 9 3
v 1 9 2
v 1 9 1
v 1 9 -0
v 1 10 7
v 1 10 6
v 1 10 5
v 1 10 4
v 1 11 7
v 1 11 6
v 1 11 5
v 1 11 4
v 1 11 3
v 1 12 7
v 1 12 6
v 1 12 5
v 1 12 4
v 2 11 4
v 2 11 3
v 2 12 4
v 2 12 3
v -1 10 7
v -1 11 7
v -1 12 7
v 1 10 7
v 1 11 7
v 1 12 7
v -1 7 5
v -1 10 5
v 1 7 5
v 1 10 5
v -2 11 4
v -2 12 4
v -1 0 4
v -1 1 4
v -1 3 4
v -1 6 4
v -1 7 4
v -1 11 4
v -1 12 4
v 0 0 4
v 0 1 4
v 0 3 4
v 1 6 4
v 1 7 4
v 1 11 4
v 1 12 4
v 2 11 4
v 2 12 4
v -1 3 3
v -1 5 3
v -1 6 3
v 0 3 3
v 0 4 3
v 0 5 3
v 0 6 3
v 1 4 3
v 1 6 3
v 0 3 2
v 0 4 2
v 1 3 2
v 1 4 2
v 0 0 1
v 0 1 1
v 0 2 1
v 0 3 1
v 1 0 1
v 1 1 1
v 1 2 1
v 1 3 1
v 0 0 -1
v 0 1 -1
v 0 3 -1
v 1 0 -1
v 1 1 -1
v 1 3 -1
v -1 4 -2
v -1 6 -2
v 0 3 -2
v 0 4 -2
v 1 3 -2
v 1 6 -2
v -1 3 -3
v -1 4 -3
v 0 3 -3
v 0 4 -3
v -1 0 -4
v -1 1 -4
v -1 2 -4
v -1 3 -4
v 0 0 -4
v 0 1 -4
v 0 2 -4
v 0 3 -4
v -2 11 3
v -2 12 3
v -1 0 3
v -1 1 3
v -1 2 3
v -1 9 3
v -1 11 3
v 0 0 3
v 0 1 3
v 0 2 3
v 0 9 3
v 1 9 3
v 1 11 3
v 2 11 3
v 2 12 3
v -1 2 2
v -1 4 2
v 0 2 2
v 0 3 2
v 0 4 2
v -1 4 1
v -1 6 1
v 0 4 1
v 1 4 1
v 1 6 1
v -1 8 -0
v -1 9 -0
v 0 0 -0
v 0 1 -0
v 0 2 -0
v 0 4 -0
v 0 8 -0
v 1 0 -0
v 1 1 -0
v 1 2 -0
v 1 4 -0
v 1 8 -0
v 1 9 -0
v 0 0 -2
v 0 1 -2
v 0 2 -2
v 1 0 -2
v 1 1 -2
v 1 2 -2
v 0 2 -3
v 0 3 -3
v 0 4 -3
v 1 2 -3
v 1 4 -3
v -1 4 -4
v -1 7 -4
v 0 4 -4
v 0 5 -4
v 0 6 -4
v 1 4 -4
v 1 5 -4
v 1 6 -4
v 1 7 -4
v -1 0 -5
v -1 1 -5
v -1 2 -5
v -1 3 -5
v -1 4 -5
v -1 7 -5
v -1 8 -5
v 0 0 -5
v 0 1 -5
v 0 2 -5
v 0 3 -5
v 0 4 -5
v 1 7 -5
v 1 8 -5
v -1 0 4
v 0 0 4
v -1 0 3
v 0 0 3
v 0 0 1
v 1 0 1
v 0 0 -0
v 1 0 -0
v 0 0 -1
v 1 0 -1
v 0 0 -2
v 1 0 -2
v -1 0 -4
v 0 0 -4
v -1 0 -5
v 0 0 -5
v -1 2 3
v 0 2 3
v -1 2 2
v 0 2 2
v 0 2 -2
v 1 2 -2
v 0 2 -3
v 1 2 -3
v 0 3 2
v 1 3 2
v 0 3 1
v 1 3 1
v -1 3 -3
v 0 3 -3
v -1 3 -4
v 0 3 -4
v 0 4 3
v 1 4 3
v -1 4 2
v 0 4 2
v 1 4 2
v -1 4 1
v 0 4 1
v -1 4 -2
v 0 4 -2
v -1 4 -3
v 0 4 -3
v 1 4 -3
v 0 4 -4
v 1 4 -4
v -1 6 4
v 1 6 4
v -1 6 3
v 0 6 3
v 1 6 3
v -1 6 1
v 1 6 1
v -1 6 -2
v 1 6 -2
v -1 7 5
v 1 7 5
v -1 7 4
v 1 7 4
v -1 7 -4
v 1 7 -4
v -1 7 -5
v 1 7 -5
v -1 10 7
v 1 10 7
v -1 10 6
v 1 10 6
v -1 10 5
v 1 10 5
v -2 11 4
v -1 11 4
v 1 11 4
v 2 11 4
v -2 11 3
v -1 11 3
v 1 11 3
v 2 11 3
v -1 3 4
v 0 3 4
v -1 3 3
v 0 3 3
v 0 3 -1
v 1 3 -1
v 0 3 -2
v 1 3 -2
v 0 4 1
v 1 4 1
v 0 4 -0
v 1 4 -0
v -1 4 -4
v 0 4 -4
v -1 4 -5
v 0 4 -5
v -1 8 -0
v 0 8 -0
v 1 8 -0
v -1 8 -1
v 0 8 -1
v -1 8 -2
v 0 8 -2
v 1 8 -2
v -1 8 -3
v 0 8 -3
v 1 8 -3
v -1 8 -4
v 1 8 -4
v -1 8 -5
v 1 8 -5
v -1 9 3
v 0 9 3
v 1 9 3
v -1 9 2
v 0 9 2
v 1 9 2
v 0 9 1
v 1 9 1
v -1 9 -0
v 1 9 -0
v -1 12 7
v 1 12 7
v -1 12 6
v 1 12 6
v -1 12 5
v 1 12 5
v -2 12 4
v -1 12 4
v 1 12 4
v 2 12 4
v -2 12 3
v 2 12 3

# faces
f 3/4/1 2/4/1 1/4/1
f 4/4/1 2/4/1 3/4/1
f 9/5/1 6/5/1 5/5/1
f 10/5/1 6/5/1 9/5/1
f 11/5/1 8/5/1 7/5/1
f 12/5/1 8/5/1 11/5/1
f 13/4/1 10/4/1 9/4/1
f 15/4/1 12/4/1 11/4/1
f 16/4/1 12/4/1 15/4/1
f 17/4/1 14/4/1 13/4/1
f 17/4/1 13/4/1 9/4/1
f 18/4/1 14/4/1 17/4/1
f 20/2/1 16/2/1 15/2/1
f 21/2/1 16/2/1 20/2/1
f 22/4/1 14/4/1 18/4/1
f 25/4/1 21/4/1 20/4/1
f 25/4/1 20/4/1 19/4/1
f 26/4/1 21/4/1 25/4/1
f 27/4/1 21/4/1 26/4/1
f 28/4/1 23/4/1 22/4/1
f 28/4/1 22/4/1 18/4/1
f 29/4/1 23/4/1 28/4/1
f 31/2/1 29/2/1 28/2/1
f 32/4/1 23/4/1 29/4/1
f 32/2/1 29/2/1 31/2/1
f 33/4/1 23/4/1 32/4/1
f 34/4/1 26/4/1 25/4/1
f 34/4/1 25/4/1 24/4/1
f 36/3/1 31/3/1 30/3/1
f 37/4/1 33/4/1 32/4/1
f 37/4/1 32/4/1 31/4/1
f 37/3/1 31/3/1 36/3/1
f 38/3/1 34/3/1 33/3/1
f 38/4/1 33/4/1 37/4/1
f 39/3/1 34/3/1 38/3/1
f 40/3/1 34/3/1 39/3/1
f 41/4/1 26/4/1 34/4/1
f 41/3/1 34/3/1 40/3/1
f 42/4/1 26/4/1 41/4/1
f 43/4/1 26/4/1 42/4/1
f 45/4/1 37/4/1 36/4/1
f 45/4/1 38/4/1 37/4/1
f 45/4/1 39/4/1 38/4/1
f 46/4/1 39/4/1 45/4/1
f 47/5/1 40/5/1 39/5/1
f 47/4/1 39/4/1 46/4/1
f 48/4/1 41/4/1 40/4/1
f 48/5/1 40/5/1 47/5/1
f 49/2/1 42/2/1 41/2/1
f 49/4/1 41/4/1 48/4/1
f 50/4/1 43/4/1 42/4/1
f 50/2/1 42/2/1 49/2/1
f 51/3/1 44/3/1 43/3/1
f 51/4/1 43/4/1 50/4/1
f 52/3/1 44/3/1 51/3/1
f 53/2/1 46/2/1 45/2/1
f 53/4/1 45/4/1 36/4/1
f 54/4/1 47/4/1 46/4/1
f 54/2/1 46/2/1 53/2/1
f 55/4/1 47/4/1 54/4/1
f 58/3/1 36/3/1 35/3/1
f 59/4/1 53/4/1 36/4/1
f 59/3/1 36/3/1 58/3/1
f 60/3/1 57/3/1 56/3/1
f 61/4/1 58/4/1 57/4/1
f 61/3/1 57/3/1 60/3/1
f 61/4/1 59/4/1 58/4/1
f 62/4/1 59/4/1 61/4/1
f 63/4/1 53/4/1 59/4/1
f 63/4/1 59/4/1 62/4/1
f 64/4/1 53/4/1 63/4/1
f 65/1/1 61/1/1 60/1/1
f 66/4/1 62/4/1 61/4/1
f 66/1/1 61/1/1 65/1/1
f 67/2/1 63/2/1 62/2/1
f 67/4/1 62/4/1 66/4/1
f 68/2/1 63/2/1 67/2/1
f 73/5/1 70/5/1 69/5/1
f 74/5/1 70/5/1 73/5/1
f 75/5/1 72/5/1 71/5/1
f 76/5/1 72/5/1 75/5/1
f 77/2/1 74/2/1 73/2/1
f 78/2/1 74/2/1 77/2/1
f 79/4/1 76/4/1 75/4/1
f 82/4/1 78/4/1 77/4/1
f 83/4/1 79/4/1 75/4/1
f 83/4/1 80/4/1 79/4/1
f 84/4/1 80/4/1 83/4/1
f 85/4/1 80/4/1 84/4/1
f 86/2/1 82/2/1 81/2/1
f 87/4/1 78/4/1 82/4/1
f 87/2/1 82/2/1 86/2/1
f 88/4/1 78/4/1 87/4/1
f 89/4/1 85/4/1 84/4/1
f 90/4/1 85/4/1 89/4/1
f 91/5/2 92/5/2 95/5/2
f 95/5/2 92/5/2 96/5/2
f 93/5/2 94/5/2 97/5/2
f 97/5/2 94/5/2 98/5/2
f 95/4/2 96/4/2 99/4/2
f 97/4/2 98/4/2 101/4/2
f 101/4/2 98/4/2 102/4/2
f 99/4/2 100/4/2 103/4/2
f 95/4/2 99/4/2 103/4/2
f 103/4/2 100/4/2 104/4/2
f 104/4/2 100/4/2 105/4/2
f 101/2/2 102/2/2 107/2/2
f 107/2/2 102/2/2 108/2/2
f 104/4/2 105/4/2 109/4/2
f 109/4/2 105/4/2 110/4/2
f 107/4/2 108/4/2 111/4/2
f 106/4/2 107/4/2 111/4/2
f 111/4/2 108/4/2 112/4/2
f 112/4/2 108/4/2 113/4/2
f 114/5/2 115/5/2 118/5/2
f 118/5/2 115/5/2 119/5/2
f 116/5/2 117/5/2 120/5/2
f 120/5/2 117/5/2 121/5/2
f 118/2/2 119/2/2 122/2/2
f 122/2/2 119/2/2 123/2/2
f 120/4/2 121/4/2 124/4/2
f 122/4/2 123/4/2 127/4/2
f 120/4/2 124/4/2 128/4/2
f 124/4/2 125/4/2 128/4/2
f 128/4/2 125/4/2 129/4/2
f 126/2/2 127/2/2 131/2/2
f 127/4/2 123/4/2 132/4/2
f 131/2/2 127/2/2 132/2/2
f 132/4/2 123/4/2 133/4/2
f 129/4/2 125/4/2 134/4/2
f 134/4/2 135/4/2 136/4/2
f 129/4/2 134/4/2 136/4/2
f 136/4/2 135/4/2 137/4/2
f 131/4/2 132/4/2 139/4/2
f 130/4/2 131/4/2 139/4/2
f 139/4/2 132/4/2 140/4/2
f 129/4/2 136/4/2 141/4/2
f 136/2/2 137/2/2 142/2/2
f 141/4/2 136/4/2 142/4/2
f 142/2/2 137/2/2 143/2/2
f 138/3/2 139/3/2 145/3/2
f 139/4/2 140/4/2 146/4/2
f 145/3/2 139/3/2 146/3/2
f 146/4/2 140/4/2 147/4/2
f 140/3/2 141/3/2 148/3/2
f 147/4/2 140/4/2 148/4/2
f 141/4/2 142/4/2 149/4/2
f 148/3/2 141/3/2 149/3/2
f 142/4/2 143/4/2 149/4/2
f 149/4/2 143/4/2 150/4/2
f 150/4/2 143/4/2 151/4/2
f 146/2/2 147/2/2 153/2/2
f 145/4/2 146/4/2 153/4/2
f 147/4/2 148/4/2 154/4/2
f 153/2/2 147/2/2 154/2/2
f 148/4/2 149/4/2 154/4/2
f 154/4/2 149/4/2 155/4/2
f 155/4/2 149/4/2 156/4/2
f 149/5/2 150/5/2 157/5/2
f 156/4/2 149/4/2 157/4/2
f 150/4/2 151/4/2 158/4/2
f 157/5/2 150/5/2 158/5/2
f 151/3/2 152/3/2 159/3/2
f 158/4/2 151/4/2 159/4/2
f 159/3/2 152/3/2 160/3/2
f 145/4/2 153/4/2 161/4/2
f 153/4/2 154/4/2 161/4/2
f 154/5/2 155/5/2 162/5/2
f 161/4/2 154/4/2 162/4/2
f 155/4/2 156/4/2 163/4/2
f 162/5/2 155/5/2 163/5/2
f 163/4/2 156/4/2 164/4/2
f 144/3/2 145/3/2 167/3/2
f 145/4/2 161/4/2 168/4/2
f 167/3/2 145/3/2 168/3/2
f 165/3/2 166/3/2 169/3/2
f 166/4/2 167/4/2 170/4/2
f 169/3/2 166/3/2 170/3/2
f 167/4/2 168/4/2 170/4/2
f 170/4/2 168/4/2 171/4/2
f 168/4/2 161/4/2 172/4/2
f 171/4/2 168/4/2 172/4/2
f 172/4/2 161/4/2 173/4/2
f 169/1/2 170/1/2 174/1/2
f 170/4/2 171/4/2 175/4/2
f 174/1/2 170/1/2 175/1/2
f 171/2/2 172/2/2 176/2/2
f 175/4/2 171/4/2 176/4/2
f 176/2/2 172/2/2 177/2/2
f 178/4/2 179/4/2 180/4/2
f 180/4/2 179/4/2 181/4/2
f 185/3/3 183/3/3 182/3/3
f 186/1/3 184/1/3 183/1/3
f 186/3/3 183/3/3 185/3/3
f 187/1/3 184/1/3 186/1/3
f 190/3/3 189/3/3 188/3/3
f 191/3/3 189/3/3 190/3/3
f 199/4/3 193/4/3 192/4/3
f 200/4/3 193/4/3 199/4/3
f 201/5/3 195/5/3 194/5/3
f 202/4/3 196/4/3 195/4/3
f 202/5/3 195/5/3 201/5/3
f 203/4/3 196/4/3 202/4/3
f 204/3/3 198/3/3 197/3/3
f 205/3/3 198/3/3 204/3/3
f 208/4/3 207/4/3 206/4/3
f 209/4/3 207/4/3 208/4/3
f 213/4/3 211/4/3 210/4/3
f 214/4/3 211/4/3 213/4/3
f 215/2/3 212/2/3 211/2/3
f 215/4/3 211/4/3 214/4/3
f 216/2/3 212/2/3 215/2/3
f 217/4/3 215/4/3 214/4/3
f 217/4/3 216/4/3 215/4/3
f 218/4/3 216/4/3 217/4/3
f 221/2/3 220/2/3 219/2/3
f 222/2/3 220/2/3 221/2/3
f 227/5/3 224/5/3 223/5/3
f 228/2/3 225/2/3 224/2/3
f 228/5/3 224/5/3 227/5/3
f 229/4/3 226/4/3 225/4/3
f 229/2/3 225/2/3 228/2/3
f 230/4/3 226/4/3 229/4/3
f 234/5/3 232/5/3 231/5/3
f 235/4/3 233/4/3 232/4/3
f 235/5/3 232/5/3 234/5/3
f 236/4/3 233/4/3 235/4/3
f 240/4/3 238/4/3 237/4/3
f 241/4/3 240/4/3 239/4/3
f 242/4/3 238/4/3 240/4/3
f 242/4/3 240/4/3 241/4/3
f 245/4/3 244/4/3 243/4/3
f 246/4/3 244/4/3 245/4/3
f 251/5/3 248/5/3 247/5/3
f 252/4/3 249/4/3 248/4/3
f 252/5/3 248/5/3 251/5/3
f 253/2/3 250/2/3 249/2/3
f 253/4/3 249/4/3 252/4/3
f 254/2/3 250/2/3 253/2/3
f 255/4/4 256/4/4 261/4/4
f 257/5/4 258/5/4 262/5/4
f 258/4/4 259/4/4 263/4/4
f 262/5/4 258/5/4 263/5/4
f 263/4/4 259/4/4 264/4/4
f 260/4/4 261/4/4 265/4/4
f 265/4/4 261/4/4 266/4/4
f 261/4/4 256/4/4 267/4/4
f 266/4/4 261/4/4 267/4/4
f 267/4/4 256/4/4 268/4/4
f 268/4/4 256/4/4 269/4/4
f 270/4/4 271/4/4 272/4/4
f 272/4/4 271/4/4 273/4/4
f 273/4/4 271/4/4 274/4/4
f 275/4/4 276/4/4 277/4/4
f 277/4/4 276/4/4 278/4/4
f 278/4/4 276/4/4 279/4/4
f 280/4/4 281/4/4 286/4/4
f 282/5/4 283/5/4 287/5/4
f 283/2/4 284/2/4 288/2/4
f 287/5/4 283/5/4 288/5/4
f 284/4/4 285/4/4 289/4/4
f 288/2/4 284/2/4 289/2/4
f 289/4/4 285/4/4 290/4/4
f 286/4/4 281/4/4 291/4/4
f 291/4/4 281/4/4 292/4/4
f 293/5/4 294/5/4 296/5/4
f 294/4/4 295/4/4 297/4/4
f 296/5/4 294/5/4 297/5/4
f 297/4/4 295/4/4 298/4/4
f 299/4/4 300/4/4 302/4/4
f 300/4/4 301/4/4 302/4/4
f 302/4/4 301/4/4 303/4/4
f 304/4/4 305/4/4 306/4/4
f 306/4/4 305/4/4 307/4/4
f 307/4/4 305/4/4 308/4/4
f 306/4/4 307/4/4 309/4/4
f 307/2/4 308/2/4 310/2/4
f 309/4/4 307/4/4 310/4/4
f 308/4/4 305/4/4 311/4/4
f 310/2/4 308/2/4 311/2/4
f 311/4/4 305/4/4 312/4/4
f 313/5/4 314/5/4 320/5/4
f 314/4/4 315/4/4 321/4/4
f 320/5/4 314/5/4 321/5/4
f 315/2/4 316/2/4 322/2/4
f 321/4/4 315/4/4 322/4/4
f 316/4/4 317/4/4 323/4/4
f 322/2/4 316/2/4 323/2/4
f 323/4/4 317/4/4 324/4/4
f 318/3/4 319/3/4 325/3/4
f 325/3/4 319/3/4 326/3/4
f 329/5/5 328/5/5 327/5/5
f 330/5/5 328/5/5 329/5/5
f 333/5/5 332/5/5 331/5/5
f 334/5/5 332/5/5 333/5/5
f 337/5/5 336/5/5 335/5/5
f 338/5/5 336/5/5 337/5/5
f 341/5/5 340/5/5 339/5/5
f 342/5/5 340/5/5 341/5/5
f 345/4/5 344/4/5 343/4/5
f 346/4/5 344/4/5 345/4/5
f 349/4/5 348/4/5 347/4/5
f 350/4/5 348/4/5 349/4/5
f 353/2/5 352/2/5 351/2/5
f 354/2/5 352/2/5 353/2/5
f 357/4/5 356/4/5 355/4/5
f 358/4/5 356/4/5 357/4/5
f 362/4/5 360/4/5 359/4/5
f 363/4/5 360/4/5 362/4/5
f 364/4/5 362/4/5 361/4/5
f 365/4/5 362/4/5 364/4/5
f 368/4/5 367/4/5 366/4/5
f 369/4/5 367/4/5 368/4/5
f 371/4/5 370/4/5 369/4/5
f 372/4/5 370/4/5 371/4/5
f 375/3/5 374/3/5 373/3/5
f 376/3/5 374/3/5 375/3/5
f 377/3/5 374/3/5 376/3/5
f 380/3/5 379/3/5 378/3/5
f 381/3/5 379/3/5 380/3/5
f 384/3/5 383/3/5 382/3/5
f 385/3/5 383/3/5 384/3/5
f 388/3/5 387/3/5 386/3/5
f 389/3/5 387/3/5 388/3/5
f 392/3/5 391/3/5 390/3/5
f 393/3/5 391/3/5 392/3/5
f 394/4/5 393/4/5 392/4/5
f 395/4/5 393/4/5 394/4/5
f 400/4/5 397/4/5 396/4/5
f 401/4/5 397/4/5 400/4/5
f 402/4/5 399/4/5 398/4/5
f 403/4/5 399/4/5 402/4/5
f 404/4/6 405/4/6 406/4/6
f 406/4/6 405/4/6 407/4/6
f 408/4/6 409/4/6 410/4/6
f 410/4/6 409/4/6 411/4/6
f 412/4/6 413/4/6 414/4/6
f 414/4/6 413/4/6 415/4/6
f 416/4/6 417/4/6 418/4/6
f 418/4/6 417/4/6 419/4/6
f 420/5/6 421/5/6 423/5/6
f 421/4/6 422/4/6 424/4/6
f 423/5/6 421/5/6 424/5/6
f 423/4/6 424/4/6 425/4/6
f 424/4/6 422/4/6 426/4/6
f 425/4/6 424/4/6 426/4/6
f 426/4/6 422/4/6 427/4/6
f 425/2/6 426/2/6 428/2/6
f 426/5/6 427/5/6 429/5/6
f 428/2/6 426/2/6 429/2/6
f 429/5/6 427/5/6 430/5/6
f 428/4/6 429/4/6 431/4/6
f 429/4/6 430/4/6 431/4/6
f 431/4/6 430/4/6 432/4/6
f 431/3/6 432/3/6 433/3/6
f 433/3/6 432/3/6 434/3/6
f 435/2/6 436/2/6 438/2/6
f 436/4/6 437/4/6 439/4/6
f 438/2/6 436/2/6 439/2/6
f 439/4/6 437/4/6 440/4/6
f 438/4/6 439/4/6 441/4/6
f 439/5/6 440/5/6 441/5/6
f 441/5/6 440/5/6 442/5/6
f 438/4/6 441/4/6 443/4/6
f 441/4/6 442/4/6 443/4/6
f 443/4/6 442/4/6 444/4/6
f 445/1/6 446/1/6 447/1/6
f 447/1/6 446/1/6 448/1/6
f 447/4/6 448/4/6 449/4/6
f 449/4/6 448/4/6 450/4/6
f 449/2/6 450/2/6 452/2/6
f 452/2/6 450/2/6 453/2/6
f 452/4/6 453/4/6 455/4/6
f 453/4/6 454/4/6 455/4/6
f 451/4/6 452/4/6 455/4/6
f 455/4/6 454/4/6 456/4/6
