# MagicaVoxel @ ephtracy

# material
mtllib deer_walking_2.mtl
usemtl palette

# normals
vn -1 0 0
vn 1 0 0
vn 0 0 1
vn 0 0 -1
vn 0 -1 0
vn 0 1 0

# texcoords
vt 0.693359 0.5
vt 0.720703 0.5
vt 0.724609 0.5
vt 0.751953 0.5
vt 0.755859 0.5

# verts
v -2 11 4
v -2 11 3
v -2 12 4
v -2 12 3
v -1 0 3
v -1 0 2
v -1 0 -2
v -1 0 -3
v -1 1 3
v -1 1 2
v -1 1 -2
v -1 1 -3
v -1 2 -2
v -1 2 -3
v -1 3 -2
v -1 3 -3
v -1 4 2
v -1 4 1
v -1 4 -3
v -1 4 -4
v -1 5 3
v -1 5 2
v -1 6 4
v -1 6 3
v -1 6 2
v -1 6 1
v -1 6 -2
v -1 7 5
v -1 7 4
v -1 7 3
v -1 7 1
v -1 7 -0
v -1 7 -1
v -1 7 -2
v -1 7 -3
v -1 7 -4
v -1 7 -5
v -1 8 3
v -1 8 2
v -1 8 -0
v -1 8 -1
v -1 8 -2
v -1 8 -3
v -1 8 -4
v -1 8 -5
v -1 9 3
v -1 9 2
v -1 9 -0
v -1 10 7
v -1 10 6
v -1 10 5
v -1 10 4
v -1 11 7
v -1 11 6
v -1 11 5
v -1 11 4
v -1 11 3
v -1 12 7
v -1 12 6
v -1 12 5
v -1 12 4
v 1 0 3
v 1 0 2
v 1 0 -2
v 1 0 -3
v 1 1 3
v 1 1 2
v 1 1 -2
v 1 1 -3
v 1 2 3
v 1 2 2
v 1 3 3
v 1 3 2
v 1 4 3
v 1 4 2
v 1 4 1
v 1 4 -3
v 1 4 -4
v 1 5 -3
v 1 5 -4
v 1 6 4
v 1 6 3
v 1 6 1
v 1 6 -2
v 1 6 -3
v 1 6 -4
v 1 7 5
v 1 7 4
v 1 7 3
v 1 7 2
v 1 7 1
v 1 7 -2
v 1 7 -3
v 1 7 -4
v 1 7 -5
v 1 8 3
v 1 8 2
v 1 8 1
v 1 8 -0
v 1 8 -2
v 1 8 -3
v 1 8 -4
v 1 8 -5
v 1 9 3
v 1 9 2
v 1 9 1
v 1 9 -0
v 1 10 7
v 1 10 6
v 1 10 5
v 1 10 4
v 1 11 7
v 1 11 6
v 1 11 5
v 1 11 4
v 1 11 3
v 1 12 7
v 1 12 6
v 1 12 5
v 1 12 4
v 2 11 4
v 2 11 3
v 2 12 4
v 2 12 3
v -1 10 7
v -1 11 7
v -1 12 7
v 1 10 7
v 1 11 7
v 1 12 7
v -1 7 5
v -1 10 5
v 1 7 5
v 1 10 5
v -2 11 4
v -2 12 4
v -1 6 4
v -1 7 4
v -1 11 4
v -1 12 4
v 1 6 4
v 1 7 4
v 1 11 4
v 1 12 4
v 2 11 4
v 2 12 4
v -1 0 3
v -1 1 3
v -1 5 3
v -1 6 3
v 0 1 3
v 0 2 3
v 0 3 3
v 0 4 3
v 0 5 3
v 0 6 3
v 1 0 3
v 1 1 3
v 1 2 3
v 1 3 3
v 1 4 3
v 1 6 3
v -1 0 -2
v -1 1 -2
v -1 2 -2
v -1 3 -2
v -1 6 -2
v 0 2 -2
v 0 3 -2
v 1 0 -2
v 1 1 -2
v 1 6 -2
v -2 11 3
v -2 12 3
v -1 9 3
v -1 11 3
v 0 9 3
v 1 9 3
v 1 11 3
v 2 11 3
v 2 12 3
v -1 0 2
v -1 1 2
v -1 4 2
v 0 1 2
v 0 2 2
v 0 3 2
v 0 4 2
v 1 0 2
v 1 1 2
v 1 2 2
v 1 3 2
v 1 4 2
v -1 4 1
v -1 6 1
v 1 4 1
v 1 6 1
v -1 8 -0
v -1 9 -0
v 0 8 -0
v 1 8 -0
v 1 9 -0
v -1 0 -3
v -1 1 -3
v -1 2 -3
v -1 3 -3
v -1 4 -3
v 0 2 -3
v 0 3 -3
v 1 0 -3
v 1 1 -3
v 1 4 -3
v -1 4 -4
v -1 7 -4
v 0 5 -4
v 0 6 -4
v 1 4 -4
v 1 5 -4
v 1 6 -4
v 1 7 -4
v -1 7 -5
v -1 8 -5
v 1 7 -5
v 1 8 -5
v -1 0 3
v 1 0 3
v -1 0 2
v 1 0 2
v -1 0 -2
v 1 0 -2
v -1 0 -3
v 1 0 -3
v -1 4 2
v 0 4 2
v 1 4 2
v -1 4 1
v 1 4 1
v -1 4 -3
v 1 4 -3
v -1 4 -4
v 1 4 -4
v -1 6 4
v 1 6 4
v -1 6 3
v 0 6 3
v 1 6 3
v -1 6 1
v 1 6 1
v -1 6 -2
v 1 6 -2
v -1 7 5
v 1 7 5
v -1 7 4
v 1 7 4
v -1 7 -4
v 1 7 -4
v -1 7 -5
v 1 7 -5
v -1 10 7
v 1 10 7
v -1 10 6
v 1 10 6
v -1 10 5
v 1 10 5
v -2 11 4
v -1 11 4
v 1 11 4
v 2 11 4
v -2 11 3
v -1 11 3
v 1 11 3
v 2 11 3
v -1 8 -0
v 0 8 -0
v 1 8 -0
v -1 8 -1
v 0 8 -1
v -1 8 -2
v 0 8 -2
v 1 8 -2
v -1 8 -3
v 0 8 -3
v 1 8 -3
v -1 8 -4
v 1 8 -4
v -1 8 -5
v 1 8 -5
v -1 9 3
v 0 9 3
v 1 9 3
v -1 9 2
v 0 9 2
v 1 9 2
v 0 9 1
v 1 9 1
v -1 9 -0
v 1 9 -0
v -1 12 7
v 1 12 7
v -1 12 6
v 1 12 6
v -1 12 5
v 1 12 5
v -2 12 4
v -1 12 4
v 1 12 4
v 2 12 4
v -2 12 3
v 2 12 3

# faces
f 3/4/1 2/4/1 1/4/1
f 4/4/1 2/4/1 3/4/1
f 9/5/1 6/5/1 5/5/1
f 10/5/1 6/5/1 9/5/1
f 11/5/1 8/5/1 7/5/1
f 12/5/1 8/5/1 11/5/1
f 13/4/1 12/4/1 11/4/1
f 14/4/1 12/4/1 13/4/1
f 15/2/1 14/2/1 13/2/1
f 16/2/1 14/2/1 15/2/1
f 17/4/1 10/4/1 9/4/1
f 19/4/1 16/4/1 15/4/1
f 21/4/1 17/4/1 9/4/1
f 21/4/1 18/4/1 17/4/1
f 22/4/1 18/4/1 21/4/1
f 24/2/1 22/2/1 21/2/1
f 25/4/1 18/4/1 22/4/1
f 25/2/1 22/2/1 24/2/1
f 26/4/1 18/4/1 25/4/1
f 27/4/1 19/4/1 15/4/1
f 27/4/1 20/4/1 19/4/1
f 29/3/1 24/3/1 23/3/1
f 30/4/1 26/4/1 25/4/1
f 30/4/1 25/4/1 24/4/1
f 30/3/1 24/3/1 29/3/1
f 31/3/1 27/3/1 26/3/1
f 31/4/1 26/4/1 30/4/1
f 32/3/1 27/3/1 31/3/1
f 33/3/1 27/3/1 32/3/1
f 34/4/1 20/4/1 27/4/1
f 34/3/1 27/3/1 33/3/1
f 35/4/1 20/4/1 34/4/1
f 36/4/1 20/4/1 35/4/1
f 38/4/1 30/4/1 29/4/1
f 38/4/1 31/4/1 30/4/1
f 38/4/1 32/4/1 31/4/1
f 39/4/1 32/4/1 38/4/1
f 40/5/1 33/5/1 32/5/1
f 40/4/1 32/4/1 39/4/1
f 41/4/1 34/4/1 33/4/1
f 41/5/1 33/5/1 40/5/1
f 42/2/1 35/2/1 34/2/1
f 42/4/1 34/4/1 41/4/1
f 43/4/1 36/4/1 35/4/1
f 43/2/1 35/2/1 42/2/1
f 44/3/1 37/3/1 36/3/1
f 44/4/1 36/4/1 43/4/1
f 45/3/1 37/3/1 44/3/1
f 46/2/1 39/2/1 38/2/1
f 46/4/1 38/4/1 29/4/1
f 47/4/1 40/4/1 39/4/1
f 47/2/1 39/2/1 46/2/1
f 48/4/1 40/4/1 47/4/1
f 51/3/1 29/3/1 28/3/1
f 52/4/1 46/4/1 29/4/1
f 52/3/1 29/3/1 51/3/1
f 53/3/1 50/3/1 49/3/1
f 54/4/1 51/4/1 50/4/1
f 54/3/1 50/3/1 53/3/1
f 54/4/1 52/4/1 51/4/1
f 55/4/1 52/4/1 54/4/1
f 56/4/1 46/4/1 52/4/1
f 56/4/1 52/4/1 55/4/1
f 57/4/1 46/4/1 56/4/1
f 58/1/1 54/1/1 53/1/1
f 59/4/1 55/4/1 54/4/1
f 59/1/1 54/1/1 58/1/1
f 60/2/1 56/2/1 55/2/1
f 60/4/1 55/4/1 59/4/1
f 61/2/1 56/2/1 60/2/1
f 62/5/2 63/5/2 66/5/2
f 66/5/2 63/5/2 67/5/2
f 64/5/2 65/5/2 68/5/2
f 68/5/2 65/5/2 69/5/2
f 66/2/2 67/2/2 70/2/2
f 70/2/2 67/2/2 71/2/2
f 70/4/2 71/4/2 72/4/2
f 72/4/2 71/4/2 73/4/2
f 72/2/2 73/2/2 74/2/2
f 74/2/2 73/2/2 75/2/2
f 68/4/2 69/4/2 77/4/2
f 68/4/2 77/4/2 79/4/2
f 77/4/2 78/4/2 79/4/2
f 79/4/2 78/4/2 80/4/2
f 75/4/2 76/4/2 82/4/2
f 74/4/2 75/4/2 82/4/2
f 82/4/2 76/4/2 83/4/2
f 68/4/2 79/4/2 84/4/2
f 79/2/2 80/2/2 85/2/2
f 84/4/2 79/4/2 85/4/2
f 85/2/2 80/2/2 86/2/2
f 81/3/2 82/3/2 88/3/2
f 82/4/2 83/4/2 89/4/2
f 88/3/2 82/3/2 89/3/2
f 89/4/2 83/4/2 90/4/2
f 83/3/2 84/3/2 91/3/2
f 90/4/2 83/4/2 91/4/2
f 84/4/2 85/4/2 92/4/2
f 91/3/2 84/3/2 92/3/2
f 85/4/2 86/4/2 92/4/2
f 92/4/2 86/4/2 93/4/2
f 93/4/2 86/4/2 94/4/2
f 89/2/2 90/2/2 96/2/2
f 88/4/2 89/4/2 96/4/2
f 90/4/2 91/4/2 97/4/2
f 96/2/2 90/2/2 97/2/2
f 91/4/2 92/4/2 97/4/2
f 97/4/2 92/4/2 98/4/2
f 98/4/2 92/4/2 99/4/2
f 92/5/2 93/5/2 100/5/2
f 99/4/2 92/4/2 100/4/2
f 93/4/2 94/4/2 101/4/2
f 100/5/2 93/5/2 101/5/2
f 94/3/2 95/3/2 102/3/2
f 101/4/2 94/4/2 102/4/2
f 102/3/2 95/3/2 103/3/2
f 88/4/2 96/4/2 104/4/2
f 96/4/2 97/4/2 104/4/2
f 97/5/2 98/5/2 105/5/2
f 104/4/2 97/4/2 105/4/2
f 98/4/2 99/4/2 106/4/2
f 105/5/2 98/5/2 106/5/2
f 106/4/2 99/4/2 107/4/2
f 87/3/2 88/3/2 110/3/2
f 88/4/2 104/4/2 111/4/2
f 110/3/2 88/3/2 111/3/2
f 108/3/2 109/3/2 112/3/2
f 109/4/2 110/4/2 113/4/2
f 112/3/2 109/3/2 113/3/2
f 110/4/2 111/4/2 113/4/2
f 113/4/2 111/4/2 114/4/2
f 111/4/2 104/4/2 115/4/2
f 114/4/2 111/4/2 115/4/2
f 115/4/2 104/4/2 116/4/2
f 112/1/2 113/1/2 117/1/2
f 113/4/2 114/4/2 118/4/2
f 117/1/2 113/1/2 118/1/2
f 114/2/2 115/2/2 119/2/2
f 118/4/2 114/4/2 119/4/2
f 119/2/2 115/2/2 120/2/2
f 121/4/2 122/4/2 123/4/2
f 123/4/2 122/4/2 124/4/2
f 128/3/3 126/3/3 125/3/3
f 129/1/3 127/1/3 126/1/3
f 129/3/3 126/3/3 128/3/3
f 130/1/3 127/1/3 129/1/3
f 133/3/3 132/3/3 131/3/3
f 134/3/3 132/3/3 133/3/3
f 139/4/3 136/4/3 135/4/3
f 140/4/3 136/4/3 139/4/3
f 141/3/3 138/3/3 137/3/3
f 142/3/3 138/3/3 141/3/3
f 145/4/3 144/4/3 143/4/3
f 146/4/3 144/4/3 145/4/3
f 151/5/3 148/5/3 147/5/3
f 151/4/3 149/4/3 148/4/3
f 152/4/3 149/4/3 151/4/3
f 153/4/3 149/4/3 152/4/3
f 154/4/3 149/4/3 153/4/3
f 155/2/3 150/2/3 149/2/3
f 155/4/3 149/4/3 154/4/3
f 156/2/3 150/2/3 155/2/3
f 157/5/3 151/5/3 147/5/3
f 158/2/3 152/2/3 151/2/3
f 158/5/3 151/5/3 157/5/3
f 159/4/3 153/4/3 152/4/3
f 159/2/3 152/2/3 158/2/3
f 160/2/3 154/2/3 153/2/3
f 160/4/3 153/4/3 159/4/3
f 161/4/3 155/4/3 154/4/3
f 161/2/3 154/2/3 160/2/3
f 161/4/3 156/4/3 155/4/3
f 162/4/3 156/4/3 161/4/3
f 168/4/3 165/4/3 164/4/3
f 168/2/3 166/2/3 165/2/3
f 169/4/3 167/4/3 166/4/3
f 169/2/3 166/2/3 168/2/3
f 170/5/3 164/5/3 163/5/3
f 171/4/3 168/4/3 164/4/3
f 171/5/3 164/5/3 170/5/3
f 171/4/3 169/4/3 168/4/3
f 172/4/3 167/4/3 169/4/3
f 172/4/3 169/4/3 171/4/3
f 173/4/4 174/4/4 176/4/4
f 175/4/4 176/4/4 177/4/4
f 177/4/4 176/4/4 178/4/4
f 176/4/4 174/4/4 179/4/4
f 178/4/4 176/4/4 179/4/4
f 179/4/4 174/4/4 180/4/4
f 180/4/4 174/4/4 181/4/4
f 182/5/4 183/5/4 185/5/4
f 183/4/4 184/4/4 185/4/4
f 185/4/4 184/4/4 186/4/4
f 186/4/4 184/4/4 187/4/4
f 187/4/4 184/4/4 188/4/4
f 182/5/4 185/5/4 189/5/4
f 185/2/4 186/2/4 190/2/4
f 189/5/4 185/5/4 190/5/4
f 186/4/4 187/4/4 191/4/4
f 190/2/4 186/2/4 191/2/4
f 187/2/4 188/2/4 192/2/4
f 191/4/4 187/4/4 192/4/4
f 192/2/4 188/2/4 193/2/4
f 194/4/4 195/4/4 196/4/4
f 196/4/4 195/4/4 197/4/4
f 198/4/4 199/4/4 200/4/4
f 200/4/4 199/4/4 201/4/4
f 201/4/4 199/4/4 202/4/4
f 204/4/4 205/4/4 208/4/4
f 205/2/4 206/2/4 208/2/4
f 206/4/4 207/4/4 209/4/4
f 208/2/4 206/2/4 209/2/4
f 203/5/4 204/5/4 210/5/4
f 204/4/4 208/4/4 211/4/4
f 210/5/4 204/5/4 211/5/4
f 208/4/4 209/4/4 211/4/4
f 209/4/4 207/4/4 212/4/4
f 211/4/4 209/4/4 212/4/4
f 213/4/4 214/4/4 215/4/4
f 215/4/4 214/4/4 216/4/4
f 213/4/4 215/4/4 217/4/4
f 215/2/4 216/2/4 218/2/4
f 217/4/4 215/4/4 218/4/4
f 216/4/4 214/4/4 219/4/4
f 218/2/4 216/2/4 219/2/4
f 219/4/4 214/4/4 220/4/4
f 221/3/4 222/3/4 223/3/4
f 223/3/4 222/3/4 224/3/4
f 227/5/5 226/5/5 225/5/5
f 228/5/5 226/5/5 227/5/5
f 231/5/5 230/5/5 229/5/5
f 232/5/5 230/5/5 231/5/5
f 236/4/5 234/4/5 233/4/5
f 236/4/5 235/4/5 234/4/5
f 237/4/5 235/4/5 236/4/5
f 240/4/5 239/4/5 238/4/5
f 241/4/5 239/4/5 240/4/5
f 244/3/5 243/3/5 242/3/5
f 245/3/5 243/3/5 244/3/5
f 246/3/5 243/3/5 245/3/5
f 249/3/5 248/3/5 247/3/5
f 250/3/5 248/3/5 249/3/5
f 253/3/5 252/3/5 251/3/5
f 254/3/5 252/3/5 253/3/5
f 257/3/5 256/3/5 255/3/5
f 258/3/5 256/3/5 257/3/5
f 261/3/5 260/3/5 259/3/5
f 262/3/5 260/3/5 261/3/5
f 263/4/5 262/4/5 261/4/5
f 264/4/5 262/4/5 263/4/5
f 269/4/5 266/4/5 265/4/5
f 270/4/5 266/4/5 269/4/5
f 271/4/5 268/4/5 267/4/5
f 272/4/5 268/4/5 271/4/5
f 273/5/6 274/5/6 276/5/6
f 274/4/6 275/4/6 277/4/6
f 276/5/6 274/5/6 277/5/6
f 276/4/6 277/4/6 278/4/6
f 277/4/6 275/4/6 279/4/6
f 278/4/6 277/4/6 279/4/6
f 279/4/6 275/4/6 280/4/6
f 278/2/6 279/2/6 281/2/6
f 279/5/6 280/5/6 282/5/6
f 281/2/6 279/2/6 282/2/6
f 282/5/6 280/5/6 283/5/6
f 281/4/6 282/4/6 284/4/6
f 282/4/6 283/4/6 284/4/6
f 284/4/6 283/4/6 285/4/6
f 284/3/6 285/3/6 286/3/6
f 286/3/6 285/3/6 287/3/6
f 288/2/6 289/2/6 291/2/6
f 289/4/6 290/4/6 292/4/6
f 291/2/6 289/2/6 292/2/6
f 292/4/6 290/4/6 293/4/6
f 291/4/6 292/4/6 294/4/6
f 292/5/6 293/5/6 294/5/6
f 294/5/6 293/5/6 295/5/6
f 291/4/6 294/4/6 296/4/6
f 294/4/6 295/4/6 296/4/6
f 296/4/6 295/4/6 297/4/6
f 298/1/6 299/1/6 300/1/6
f 300/1/6 299/1/6 301/1/6
f 300/4/6 301/4/6 302/4/6
f 302/4/6 301/4/6 303/4/6
f 302/2/6 303/2/6 305/2/6
f 305/2/6 303/2/6 306/2/6
f 305/4/6 306/4/6 308/4/6
f 306/4/6 307/4/6 308/4/6
f 304/4/6 305/4/6 308/4/6
f 308/4/6 307/4/6 309/4/6
