# MagicaVoxel @ ephtracy

# material
mtllib house.mtl
usemtl palette

# normals
vn -1 0 0
vn 1 0 0
vn 0 0 1
vn 0 0 -1
vn 0 -1 0
vn 0 1 0

# texcoords
vt 0.306641 0.5
vt 0.373047 0.5
vt 0.416016 0.5
vt 0.537109 0.5
vt 0.876953 0.5
vt 0.962891 0.5
vt 0.966797 0.5

# verts
v -15 0 15
v -15 0 -15
v -15 2 3
v -15 2 -2
v -15 10 3
v -15 10 -2
v -15 12 14
v -15 12 -14
v -15 13 15
v -15 13 14
v -15 13 -14
v -15 13 -15
v -14 13 15
v -14 13 14
v -14 13 -14
v -14 13 -15
v -14 14 15
v -14 14 14
v -14 14 -14
v -14 14 -15
v -13 14 15
v -13 14 14
v -13 14 -14
v -13 14 -15
v -13 15 15
v -13 15 14
v -13 15 -14
v -13 15 -15
v -12 15 15
v -12 15 14
v -12 15 -14
v -12 15 -15
v -12 16 15
v -12 16 14
v -12 16 -14
v -12 16 -15
v -11 16 15
v -11 16 14
v -11 16 -14
v -11 16 -15
v -11 17 15
v -11 17 14
v -11 17 -14
v -11 17 -15
v -10 17 15
v -10 17 14
v -10 17 -14
v -10 17 -15
v -10 18 15
v -10 18 14
v -10 18 -14
v -10 18 -15
v -9 18 15
v -9 18 14
v -9 18 -14
v -9 18 -15
v -9 19 15
v -9 19 14
v -9 19 -14
v -9 19 -15
v -8 19 15
v -8 19 14
v -8 19 -14
v -8 19 -15
v -8 20 15
v -8 20 14
v -8 20 -14
v -8 20 -15
v -7 20 15
v -7 20 14
v -7 20 -14
v -7 20 -15
v -7 21 15
v -7 21 14
v -7 21 -14
v -7 21 -15
v -6 21 15
v -6 21 14
v -6 21 -14
v -6 21 -15
v -6 22 15
v -6 22 14
v -6 22 -14
v -6 22 -15
v -5 22 15
v -5 22 14
v -5 22 -14
v -5 22 -15
v -5 23 15
v -5 23 14
v -5 23 -14
v -5 23 -15
v -4 23 15
v -4 23 14
v -4 23 -14
v -4 23 -15
v -4 24 15
v -4 24 14
v -4 24 -14
v -4 24 -15
v -3 24 15
v -3 24 14
v -3 24 -14
v -3 24 -15
v -3 25 15
v -3 25 14
v -3 25 -14
v -3 25 -15
v -2 25 15
v -2 25 14
v -2 25 -14
v -2 25 -15
v -2 26 15
v -2 26 14
v -2 26 -14
v -2 26 -15
v -1 26 15
v -1 26 14
v -1 26 -14
v -1 26 -15
v -1 27 15
v -1 27 14
v -1 27 -14
v -1 27 -15
v 3 25 -11
v 3 25 -14
v 3 25 -15
v 3 29 -11
v 3 29 -15
v 1 26 15
v 1 26 14
v 1 26 -14
v 1 26 -15
v 1 27 15
v 1 27 14
v 1 27 -14
v 1 27 -15
v 2 25 15
v 2 25 14
v 2 25 -14
v 2 25 -15
v 2 26 15
v 2 26 14
v 2 26 -14
v 2 26 -15
v 3 24 15
v 3 24 14
v 3 24 -11
v 3 25 15
v 3 25 14
v 3 25 -11
v 4 23 15
v 4 23 14
v 4 23 -11
v 4 24 15
v 4 24 14
v 4 24 -11
v 5 22 15
v 5 22 14
v 5 22 -11
v 5 23 15
v 5 23 14
v 5 23 -11
v 6 21 15
v 6 21 14
v 6 21 -14
v 6 21 -15
v 6 22 15
v 6 22 14
v 6 22 -11
v 6 22 -14
v 6 22 -15
v 6 29 -11
v 6 29 -15
v 7 20 15
v 7 20 14
v 7 20 -14
v 7 20 -15
v 7 21 15
v 7 21 14
v 7 21 -14
v 7 21 -15
v 8 19 15
v 8 19 14
v 8 19 -14
v 8 19 -15
v 8 20 15
v 8 20 14
v 8 20 -14
v 8 20 -15
v 9 18 15
v 9 18 14
v 9 18 -14
v 9 18 -15
v 9 19 15
v 9 19 14
v 9 19 -14
v 9 19 -15
v 10 17 15
v 10 17 14
v 10 17 -14
v 10 17 -15
v 10 18 15
v 10 18 14
v 10 18 -14
v 10 18 -15
v 11 16 15
v 11 16 14
v 11 16 -14
v 11 16 -15
v 11 17 15
v 11 17 14
v 11 17 -14
v 11 17 -15
v 12 15 15
v 12 15 14
v 12 15 -14
v 12 15 -15
v 12 16 15
v 12 16 14
v 12 16 -14
v 12 16 -15
v 13 14 15
v 13 14 14
v 13 14 -14
v 13 14 -15
v 13 15 15
v 13 15 14
v 13 15 -14
v 13 15 -15
v 14 13 15
v 14 13 14
v 14 13 -14
v 14 13 -15
v 14 14 15
v 14 14 14
v 14 14 -14
v 14 14 -15
v 15 0 15
v 15 0 -15
v 15 2 2
v 15 2 -3
v 15 10 2
v 15 10 -3
v 15 12 14
v 15 12 -14
v 15 13 15
v 15 13 14
v 15 13 -14
v 15 13 -15
v -15 0 15
v -15 13 15
v -14 13 15
v -14 14 15
v -13 5 15
v -13 10 15
v -13 14 15
v -13 15 15
v -12 15 15
v -12 16 15
v -11 16 15
v -11 17 15
v -10 17 15
v -10 18 15
v -9 18 15
v -9 19 15
v -8 19 15
v -8 20 15
v -7 20 15
v -7 21 15
v -6 21 15
v -6 22 15
v -5 5 15
v -5 10 15
v -5 22 15
v -5 23 15
v -4 23 15
v -4 24 15
v -3 0 15
v -3 10 15
v -3 24 15
v -3 25 15
v -2 25 15
v -2 26 15
v -1 26 15
v -1 27 15
v 1 4 15
v 1 5 15
v 1 26 15
v 1 27 15
v 2 4 15
v 2 5 15
v 2 25 15
v 2 26 15
v 3 0 15
v 3 10 15
v 3 24 15
v 3 25 15
v 4 23 15
v 4 24 15
v 5 5 15
v 5 10 15
v 5 22 15
v 5 23 15
v 6 21 15
v 6 22 15
v 7 20 15
v 7 21 15
v 8 19 15
v 8 20 15
v 9 18 15
v 9 19 15
v 10 17 15
v 10 18 15
v 11 16 15
v 11 17 15
v 12 15 15
v 12 16 15
v 13 5 15
v 13 10 15
v 13 14 15
v 13 15 15
v 14 13 15
v 14 14 15
v 15 0 15
v 15 13 15
v 3 24 -11
v 3 25 -11
v 3 29 -11
v 4 23 -11
v 4 24 -11
v 5 22 -11
v 5 23 -11
v 6 22 -11
v 6 29 -11
v -15 0 -15
v -15 13 -15
v -14 13 -15
v -14 14 -15
v -13 14 -15
v -13 15 -15
v -12 15 -15
v -12 16 -15
v -11 16 -15
v -11 17 -15
v -10 17 -15
v -10 18 -15
v -9 18 -15
v -9 19 -15
v -8 19 -15
v -8 20 -15
v -7 20 -15
v -7 21 -15
v -6 21 -15
v -6 22 -15
v -5 22 -15
v -5 23 -15
v -4 23 -15
v -4 24 -15
v -3 24 -15
v -3 25 -15
v -2 25 -15
v -2 26 -15
v -1 26 -15
v -1 27 -15
v 1 26 -15
v 1 27 -15
v 2 25 -15
v 2 26 -15
v 3 24 -15
v 3 25 -15
v 3 29 -15
v 4 23 -15
v 4 24 -15
v 5 22 -15
v 5 23 -15
v 6 21 -15
v 6 22 -15
v 6 29 -15
v 7 20 -15
v 7 21 -15
v 8 19 -15
v 8 20 -15
v 9 18 -15
v 9 19 -15
v 10 17 -15
v 10 18 -15
v 11 16 -15
v 11 17 -15
v 12 15 -15
v 12 16 -15
v 13 14 -15
v 13 15 -15
v 14 13 -15
v 14 14 -15
v 15 0 -15
v 15 13 -15
v -15 0 15
v -3 0 15
v 3 0 15
v 15 0 15
v -3 0 14
v 3 0 14
v -15 0 -15
v 15 0 -15
v -15 13 15
v -14 13 15
v 14 13 15
v 15 13 15
v -15 13 14
v -14 13 14
v 14 13 14
v 15 13 14
v -15 13 -14
v -14 13 -14
v 14 13 -14
v 15 13 -14
v -15 13 -15
v -14 13 -15
v 14 13 -15
v 15 13 -15
v -14 14 15
v -13 14 15
v 13 14 15
v 14 14 15
v -14 14 14
v -13 14 14
v 13 14 14
v 14 14 14
v -14 14 -14
v -13 14 -14
v 13 14 -14
v 14 14 -14
v -14 14 -15
v -13 14 -15
v 13 14 -15
v 14 14 -15
v -13 15 15
v -12 15 15
v 12 15 15
v 13 15 15
v -13 15 14
v -12 15 14
v 12 15 14
v 13 15 14
v -13 15 -14
v -12 15 -14
v 12 15 -14
v 13 15 -14
v -13 15 -15
v -12 15 -15
v 12 15 -15
v 13 15 -15
v -12 16 15
v -11 16 15
v 11 16 15
v 12 16 15
v -12 16 14
v -11 16 14
v 11 16 14
v 12 16 14
v -12 16 -14
v -11 16 -14
v 11 16 -14
v 12 16 -14
v -12 16 -15
v -11 16 -15
v 11 16 -15
v 12 16 -15
v -11 17 15
v -10 17 15
v 10 17 15
v 11 17 15
v -11 17 14
v -10 17 14
v 10 17 14
v 11 17 14
v -11 17 -14
v -10 17 -14
v 10 17 -14
v 11 17 -14
v -11 17 -15
v -10 17 -15
v 10 17 -15
v 11 17 -15
v -10 18 15
v -9 18 15
v 9 18 15
v 10 18 15
v -10 18 14
v -9 18 14
v 9 18 14
v 10 18 14
v -10 18 -14
v -9 18 -14
v 9 18 -14
v 10 18 -14
v -10 18 -15
v -9 18 -15
v 9 18 -15
v 10 18 -15
v -9 19 15
v -8 19 15
v 8 19 15
v 9 19 15
v -9 19 14
v -8 19 14
v 8 19 14
v 9 19 14
v -9 19 -14
v -8 19 -14
v 8 19 -14
v 9 19 -14
v -9 19 -15
v -8 19 -15
v 8 19 -15
v 9 19 -15
v -8 20 15
v -7 20 15
v 7 20 15
v 8 20 15
v -8 20 14
v -7 20 14
v 7 20 14
v 8 20 14
v -8 20 -14
v -7 20 -14
v 7 20 -14
v 8 20 -14
v -8 20 -15
v -7 20 -15
v 7 20 -15
v 8 20 -15
v -7 21 15
v -6 21 15
v 6 21 15
v 7 21 15
v -7 21 14
v -6 21 14
v 6 21 14
v 7 21 14
v -7 21 -14
v -6 21 -14
v 6 21 -14
v 7 21 -14
v -7 21 -15
v -6 21 -15
v 6 21 -15
v 7 21 -15
v -6 22 15
v -5 22 15
v 5 22 15
v 6 22 15
v -6 22 14
v -5 22 14
v 5 22 14
v 6 22 14
v 5 22 -11
v 6 22 -11
v -6 22 -14
v -5 22 -14
v -6 22 -15
v -5 22 -15
v -5 23 15
v -4 23 15
v 4 23 15
v 5 23 15
v -5 23 14
v -4 23 14
v 4 23 14
v 5 23 14
v 4 23 -11
v 5 23 -11
v -5 23 -14
v -4 23 -14
v -5 23 -15
v -4 23 -15
v -4 24 15
v -3 24 15
v 3 24 15
v 4 24 15
v -4 24 14
v -3 24 14
v 3 24 14
v 4 24 14
v 3 24 -11
v 4 24 -11
v -4 24 -14
v -3 24 -14
v -4 24 -15
v -3 24 -15
v -3 25 15
v -2 25 15
v 2 25 15
v 3 25 15
v -3 25 14
v -2 25 14
v 2 25 14
v 3 25 14
v 3 25 -11
v -3 25 -14
v -2 25 -14
v 2 25 -14
v 3 25 -14
v -3 25 -15
v -2 25 -15
v 2 25 -15
v 3 25 -15
v -2 26 15
v -1 26 15
v 1 26 15
v 2 26 15
v -2 26 14
v -1 26 14
v 1 26 14
v 2 26 14
v -2 26 -14
v -1 26 -14
v 1 26 -14
v 2 26 -14
v -2 26 -15
v -1 26 -15
v 1 26 -15
v 2 26 -15
v -1 27 15
v 1 27 15
v -1 27 14
v 1 27 14
v -1 27 -14
v 1 27 -14
v -1 27 -15
v 1 27 -15
v 3 29 -11
v 6 29 -11
v 4 29 -12
v 5 29 -12
v 4 29 -14
v 5 29 -14
v 3 29 -15
v 6 29 -15

# faces
f 3/6/1 2/6/1 1/6/1
f 4/6/1 2/6/1 3/6/1
f 5/6/1 3/6/1 1/6/1
f 5/1/1 4/1/1 3/1/1
f 6/6/1 2/6/1 4/6/1
f 6/1/1 4/1/1 5/1/1
f 7/6/1 5/6/1 1/6/1
f 7/6/1 6/6/1 5/6/1
f 8/6/1 2/6/1 6/6/1
f 8/6/1 6/6/1 7/6/1
f 9/6/1 7/6/1 1/6/1
f 10/4/1 8/4/1 7/4/1
f 10/6/1 7/6/1 9/6/1
f 11/6/1 2/6/1 8/6/1
f 11/4/1 8/4/1 10/4/1
f 12/6/1 2/6/1 11/6/1
f 17/6/1 14/6/1 13/6/1
f 18/4/1 15/4/1 14/4/1
f 18/6/1 14/6/1 17/6/1
f 19/6/1 16/6/1 15/6/1
f 19/4/1 15/4/1 18/4/1
f 20/6/1 16/6/1 19/6/1
f 25/6/1 22/6/1 21/6/1
f 26/4/1 23/4/1 22/4/1
f 26/6/1 22/6/1 25/6/1
f 27/6/1 24/6/1 23/6/1
f 27/4/1 23/4/1 26/4/1
f 28/6/1 24/6/1 27/6/1
f 33/6/1 30/6/1 29/6/1
f 34/4/1 31/4/1 30/4/1
f 34/6/1 30/6/1 33/6/1
f 35/6/1 32/6/1 31/6/1
f 35/4/1 31/4/1 34/4/1
f 36/6/1 32/6/1 35/6/1
f 41/6/1 38/6/1 37/6/1
f 42/4/1 39/4/1 38/4/1
f 42/6/1 38/6/1 41/6/1
f 43/6/1 40/6/1 39/6/1
f 43/4/1 39/4/1 42/4/1
f 44/6/1 40/6/1 43/6/1
f 49/6/1 46/6/1 45/6/1
f 50/4/1 47/4/1 46/4/1
f 50/6/1 46/6/1 49/6/1
f 51/6/1 48/6/1 47/6/1
f 51/4/1 47/4/1 50/4/1
f 52/6/1 48/6/1 51/6/1
f 57/6/1 54/6/1 53/6/1
f 58/4/1 55/4/1 54/4/1
f 58/6/1 54/6/1 57/6/1
f 59/6/1 56/6/1 55/6/1
f 59/4/1 55/4/1 58/4/1
f 60/6/1 56/6/1 59/6/1
f 65/6/1 62/6/1 61/6/1
f 66/4/1 63/4/1 62/4/1
f 66/6/1 62/6/1 65/6/1
f 67/6/1 64/6/1 63/6/1
f 67/4/1 63/4/1 66/4/1
f 68/6/1 64/6/1 67/6/1
f 73/6/1 70/6/1 69/6/1
f 74/4/1 71/4/1 70/4/1
f 74/6/1 70/6/1 73/6/1
f 75/6/1 72/6/1 71/6/1
f 75/4/1 71/4/1 74/4/1
f 76/6/1 72/6/1 75/6/1
f 81/6/1 78/6/1 77/6/1
f 82/4/1 79/4/1 78/4/1
f 82/6/1 78/6/1 81/6/1
f 83/6/1 80/6/1 79/6/1
f 83/4/1 79/4/1 82/4/1
f 84/6/1 80/6/1 83/6/1
f 89/6/1 86/6/1 85/6/1
f 90/4/1 87/4/1 86/4/1
f 90/6/1 86/6/1 89/6/1
f 91/6/1 88/6/1 87/6/1
f 91/4/1 87/4/1 90/4/1
f 92/6/1 88/6/1 91/6/1
f 97/6/1 94/6/1 93/6/1
f 98/4/1 95/4/1 94/4/1
f 98/6/1 94/6/1 97/6/1
f 99/6/1 96/6/1 95/6/1
f 99/4/1 95/4/1 98/4/1
f 100/6/1 96/6/1 99/6/1
f 105/6/1 102/6/1 101/6/1
f 106/4/1 103/4/1 102/4/1
f 106/6/1 102/6/1 105/6/1
f 107/6/1 104/6/1 103/6/1
f 107/4/1 103/4/1 106/4/1
f 108/6/1 104/6/1 107/6/1
f 113/6/1 110/6/1 109/6/1
f 114/4/1 111/4/1 110/4/1
f 114/6/1 110/6/1 113/6/1
f 115/6/1 112/6/1 111/6/1
f 115/4/1 111/4/1 114/4/1
f 116/6/1 112/6/1 115/6/1
f 121/6/1 118/6/1 117/6/1
f 122/4/1 119/4/1 118/4/1
f 122/6/1 118/6/1 121/6/1
f 123/6/1 120/6/1 119/6/1
f 123/4/1 119/4/1 122/4/1
f 124/6/1 120/6/1 123/6/1
f 128/2/1 126/2/1 125/2/1
f 128/2/1 127/2/1 126/2/1
f 129/2/1 127/2/1 128/2/1
f 130/6/2 131/6/2 134/6/2
f 131/4/2 132/4/2 135/4/2
f 134/6/2 131/6/2 135/6/2
f 132/6/2 133/6/2 136/6/2
f 135/4/2 132/4/2 136/4/2
f 136/6/2 133/6/2 137/6/2
f 138/6/2 139/6/2 142/6/2
f 139/4/2 140/4/2 143/4/2
f 142/6/2 139/6/2 143/6/2
f 140/6/2 141/6/2 144/6/2
f 143/4/2 140/4/2 144/4/2
f 144/6/2 141/6/2 145/6/2
f 146/6/2 147/6/2 149/6/2
f 147/4/2 148/4/2 150/4/2
f 149/6/2 147/6/2 150/6/2
f 150/4/2 148/4/2 151/4/2
f 152/6/2 153/6/2 155/6/2
f 153/4/2 154/4/2 156/4/2
f 155/6/2 153/6/2 156/6/2
f 156/4/2 154/4/2 157/4/2
f 158/6/2 159/6/2 161/6/2
f 159/4/2 160/4/2 162/4/2
f 161/6/2 159/6/2 162/6/2
f 162/4/2 160/4/2 163/4/2
f 164/6/2 165/6/2 168/6/2
f 165/4/2 166/4/2 169/4/2
f 168/6/2 165/6/2 169/6/2
f 169/4/2 166/4/2 170/4/2
f 166/6/2 167/6/2 171/6/2
f 170/4/2 166/4/2 171/4/2
f 171/6/2 167/6/2 172/6/2
f 171/2/2 172/2/2 173/2/2
f 170/2/2 171/2/2 173/2/2
f 173/2/2 172/2/2 174/2/2
f 175/6/2 176/6/2 179/6/2
f 176/4/2 177/4/2 180/4/2
f 179/6/2 176/6/2 180/6/2
f 177/6/2 178/6/2 181/6/2
f 180/4/2 177/4/2 181/4/2
f 181/6/2 178/6/2 182/6/2
f 183/6/2 184/6/2 187/6/2
f 184/4/2 185/4/2 188/4/2
f 187/6/2 184/6/2 188/6/2
f 185/6/2 186/6/2 189/6/2
f 188/4/2 185/4/2 189/4/2
f 189/6/2 186/6/2 190/6/2
f 191/6/2 192/6/2 195/6/2
f 192/4/2 193/4/2 196/4/2
f 195/6/2 192/6/2 196/6/2
f 193/6/2 194/6/2 197/6/2
f 196/4/2 193/4/2 197/4/2
f 197/6/2 194/6/2 198/6/2
f 199/6/2 200/6/2 203/6/2
f 200/4/2 201/4/2 204/4/2
f 203/6/2 200/6/2 204/6/2
f 201/6/2 202/6/2 205/6/2
f 204/4/2 201/4/2 205/4/2
f 205/6/2 202/6/2 206/6/2
f 207/6/2 208/6/2 211/6/2
f 208/4/2 209/4/2 212/4/2
f 211/6/2 208/6/2 212/6/2
f 209/6/2 210/6/2 213/6/2
f 212/4/2 209/4/2 213/4/2
f 213/6/2 210/6/2 214/6/2
f 215/6/2 216/6/2 219/6/2
f 216/4/2 217/4/2 220/4/2
f 219/6/2 216/6/2 220/6/2
f 217/6/2 218/6/2 221/6/2
f 220/4/2 217/4/2 221/4/2
f 221/6/2 218/6/2 222/6/2
f 223/6/2 224/6/2 227/6/2
f 224/4/2 225/4/2 228/4/2
f 227/6/2 224/6/2 228/6/2
f 225/6/2 226/6/2 229/6/2
f 228/4/2 225/4/2 229/4/2
f 229/6/2 226/6/2 230/6/2
f 231/6/2 232/6/2 235/6/2
f 232/4/2 233/4/2 236/4/2
f 235/6/2 232/6/2 236/6/2
f 233/6/2 234/6/2 237/6/2
f 236/4/2 233/4/2 237/4/2
f 237/6/2 234/6/2 238/6/2
f 239/6/2 240/6/2 241/6/2
f 241/6/2 240/6/2 242/6/2
f 239/6/2 241/6/2 243/6/2
f 241/1/2 242/1/2 243/1/2
f 242/6/2 240/6/2 244/6/2
f 243/1/2 242/1/2 244/1/2
f 239/6/2 243/6/2 245/6/2
f 243/6/2 244/6/2 245/6/2
f 244/6/2 240/6/2 246/6/2
f 245/6/2 244/6/2 246/6/2
f 239/6/2 245/6/2 247/6/2
f 245/4/2 246/4/2 248/4/2
f 247/6/2 245/6/2 248/6/2
f 246/6/2 240/6/2 249/6/2
f 248/4/2 246/4/2 249/4/2
f 249/6/2 240/6/2 250/6/2
f 253/6/3 252/6/3 251/6/3
f 255/6/3 253/6/3 251/6/3
f 255/6/3 254/6/3 253/6/3
f 256/6/3 254/6/3 255/6/3
f 257/6/3 254/6/3 256/6/3
f 259/6/3 257/6/3 256/6/3
f 259/6/3 258/6/3 257/6/3
f 261/6/3 260/6/3 259/6/3
f 263/6/3 262/6/3 261/6/3
f 265/6/3 264/6/3 263/6/3
f 267/6/3 266/6/3 265/6/3
f 269/6/3 268/6/3 267/6/3
f 271/6/3 270/6/3 269/6/3
f 273/6/3 255/6/3 251/6/3
f 273/1/3 256/1/3 255/1/3
f 274/6/3 272/6/3 271/6/3
f 274/1/3 256/1/3 273/1/3
f 274/6/3 271/6/3 269/6/3
f 274/6/3 269/6/3 267/6/3
f 274/6/3 267/6/3 265/6/3
f 274/6/3 265/6/3 263/6/3
f 274/6/3 263/6/3 261/6/3
f 274/6/3 261/6/3 259/6/3
f 274/6/3 259/6/3 256/6/3
f 275/6/3 272/6/3 274/6/3
f 277/6/3 274/6/3 273/6/3
f 277/6/3 276/6/3 275/6/3
f 277/6/3 275/6/3 274/6/3
f 279/6/3 273/6/3 251/6/3
f 279/6/3 278/6/3 277/6/3
f 279/6/3 277/6/3 273/6/3
f 280/6/3 278/6/3 279/6/3
f 281/6/3 278/6/3 280/6/3
f 283/6/3 281/6/3 280/6/3
f 283/6/3 282/6/3 281/6/3
f 285/6/3 284/6/3 283/6/3
f 287/3/3 280/3/3 279/3/3
f 288/3/3 280/3/3 287/3/3
f 289/6/3 286/6/3 285/6/3
f 289/6/3 285/6/3 283/6/3
f 290/6/3 286/6/3 289/6/3
f 291/7/3 288/7/3 287/7/3
f 291/3/3 287/3/3 279/3/3
f 292/3/3 280/3/3 288/3/3
f 292/7/3 288/7/3 291/7/3
f 293/6/3 283/6/3 280/6/3
f 293/6/3 289/6/3 283/6/3
f 294/6/3 289/6/3 293/6/3
f 295/3/3 291/3/3 279/3/3
f 295/3/3 292/3/3 291/3/3
f 296/3/3 280/3/3 292/3/3
f 296/3/3 292/3/3 295/3/3
f 296/6/3 293/6/3 280/6/3
f 297/6/3 293/6/3 296/6/3
f 298/6/3 293/6/3 297/6/3
f 299/6/3 296/6/3 295/6/3
f 299/6/3 297/6/3 296/6/3
f 300/6/3 297/6/3 299/6/3
f 301/6/3 299/6/3 295/6/3
f 302/6/3 299/6/3 301/6/3
f 303/6/3 299/6/3 302/6/3
f 304/6/3 299/6/3 303/6/3
f 305/6/3 303/6/3 302/6/3
f 306/6/3 303/6/3 305/6/3
f 307/6/3 305/6/3 302/6/3
f 308/6/3 305/6/3 307/6/3
f 309/6/3 307/6/3 302/6/3
f 310/6/3 307/6/3 309/6/3
f 311/6/3 309/6/3 302/6/3
f 312/6/3 309/6/3 311/6/3
f 313/6/3 311/6/3 302/6/3
f 314/6/3 311/6/3 313/6/3
f 315/6/3 313/6/3 302/6/3
f 316/6/3 313/6/3 315/6/3
f 317/6/3 315/6/3 302/6/3
f 318/6/3 315/6/3 317/6/3
f 319/6/3 301/6/3 295/6/3
f 319/1/3 302/1/3 301/1/3
f 320/6/3 317/6/3 302/6/3
f 320/1/3 302/1/3 319/1/3
f 321/6/3 317/6/3 320/6/3
f 322/6/3 317/6/3 321/6/3
f 323/6/3 320/6/3 319/6/3
f 323/6/3 321/6/3 320/6/3
f 324/6/3 321/6/3 323/6/3
f 325/6/3 319/6/3 295/6/3
f 325/6/3 323/6/3 319/6/3
f 326/6/3 323/6/3 325/6/3
f 331/2/3 328/2/3 327/2/3
f 331/2/3 329/2/3 328/2/3
f 333/2/3 331/2/3 330/2/3
f 334/2/3 333/2/3 332/2/3
f 335/2/3 329/2/3 331/2/3
f 335/2/3 333/2/3 334/2/3
f 335/2/3 331/2/3 333/2/3
f 336/6/4 337/6/4 338/6/4
f 338/6/4 339/6/4 340/6/4
f 340/6/4 341/6/4 342/6/4
f 342/6/4 343/6/4 344/6/4
f 344/6/4 345/6/4 346/6/4
f 346/6/4 347/6/4 348/6/4
f 348/6/4 349/6/4 350/6/4
f 350/6/4 351/6/4 352/6/4
f 352/6/4 353/6/4 354/6/4
f 354/6/4 355/6/4 356/6/4
f 356/6/4 357/6/4 358/6/4
f 358/6/4 359/6/4 360/6/4
f 360/6/4 361/6/4 362/6/4
f 362/6/4 363/6/4 364/6/4
f 362/6/4 364/6/4 366/6/4
f 364/6/4 365/6/4 366/6/4
f 366/6/4 365/6/4 367/6/4
f 360/6/4 362/6/4 368/6/4
f 362/6/4 366/6/4 368/6/4
f 368/6/4 366/6/4 369/6/4
f 358/6/4 360/6/4 370/6/4
f 360/6/4 368/6/4 370/6/4
f 370/6/4 368/6/4 371/6/4
f 356/6/4 358/6/4 373/6/4
f 358/6/4 370/6/4 373/6/4
f 371/2/4 372/2/4 374/2/4
f 373/6/4 370/6/4 374/6/4
f 370/2/4 371/2/4 374/2/4
f 354/6/4 356/6/4 375/6/4
f 356/6/4 373/6/4 375/6/4
f 373/2/4 374/2/4 376/2/4
f 375/6/4 373/6/4 376/6/4
f 352/6/4 354/6/4 377/6/4
f 354/6/4 375/6/4 377/6/4
f 375/2/4 376/2/4 378/2/4
f 377/6/4 375/6/4 378/6/4
f 376/2/4 374/2/4 379/2/4
f 378/2/4 376/2/4 379/2/4
f 374/2/4 372/2/4 379/2/4
f 350/6/4 352/6/4 380/6/4
f 352/6/4 377/6/4 380/6/4
f 380/6/4 377/6/4 381/6/4
f 348/6/4 350/6/4 382/6/4
f 350/6/4 380/6/4 382/6/4
f 382/6/4 380/6/4 383/6/4
f 346/6/4 348/6/4 384/6/4
f 348/6/4 382/6/4 384/6/4
f 384/6/4 382/6/4 385/6/4
f 344/6/4 346/6/4 386/6/4
f 346/6/4 384/6/4 386/6/4
f 386/6/4 384/6/4 387/6/4
f 342/6/4 344/6/4 388/6/4
f 344/6/4 386/6/4 388/6/4
f 388/6/4 386/6/4 389/6/4
f 340/6/4 342/6/4 390/6/4
f 342/6/4 388/6/4 390/6/4
f 390/6/4 388/6/4 391/6/4
f 338/6/4 340/6/4 392/6/4
f 340/6/4 390/6/4 392/6/4
f 392/6/4 390/6/4 393/6/4
f 336/6/4 338/6/4 394/6/4
f 338/6/4 392/6/4 394/6/4
f 394/6/4 392/6/4 395/6/4
f 336/6/4 394/6/4 396/6/4
f 396/6/4 394/6/4 397/6/4
f 402/6/5 399/6/5 398/6/5
f 402/3/5 400/3/5 399/3/5
f 403/6/5 401/6/5 400/6/5
f 403/3/5 400/3/5 402/3/5
f 404/6/5 402/6/5 398/6/5
f 404/6/5 403/6/5 402/6/5
f 405/6/5 401/6/5 403/6/5
f 405/6/5 403/6/5 404/6/5
f 406/6/6 407/6/6 410/6/6
f 410/6/6 407/6/6 411/6/6
f 408/6/6 409/6/6 412/6/6
f 412/6/6 409/6/6 413/6/6
f 410/4/6 411/4/6 414/4/6
f 414/4/6 411/4/6 415/4/6
f 412/4/6 413/4/6 416/4/6
f 416/4/6 413/4/6 417/4/6
f 414/6/6 415/6/6 418/6/6
f 418/6/6 415/6/6 419/6/6
f 416/6/6 417/6/6 420/6/6
f 420/6/6 417/6/6 421/6/6
f 422/6/6 423/6/6 426/6/6
f 426/6/6 423/6/6 427/6/6
f 424/6/6 425/6/6 428/6/6
f 428/6/6 425/6/6 429/6/6
f 426/4/6 427/4/6 430/4/6
f 430/4/6 427/4/6 431/4/6
f 428/4/6 429/4/6 432/4/6
f 432/4/6 429/4/6 433/4/6
f 430/6/6 431/6/6 434/6/6
f 434/6/6 431/6/6 435/6/6
f 432/6/6 433/6/6 436/6/6
f 436/6/6 433/6/6 437/6/6
f 438/6/6 439/6/6 442/6/6
f 442/6/6 439/6/6 443/6/6
f 440/6/6 441/6/6 444/6/6
f 444/6/6 441/6/6 445/6/6
f 442/4/6 443/4/6 446/4/6
f 446/4/6 443/4/6 447/4/6
f 444/4/6 445/4/6 448/4/6
f 448/4/6 445/4/6 449/4/6
f 446/6/6 447/6/6 450/6/6
f 450/6/6 447/6/6 451/6/6
f 448/6/6 449/6/6 452/6/6
f 452/6/6 449/6/6 453/6/6
f 454/6/6 455/6/6 458/6/6
f 458/6/6 455/6/6 459/6/6
f 456/6/6 457/6/6 460/6/6
f 460/6/6 457/6/6 461/6/6
f 458/4/6 459/4/6 462/4/6
f 462/4/6 459/4/6 463/4/6
f 460/4/6 461/4/6 464/4/6
f 464/4/6 461/4/6 465/4/6
f 462/6/6 463/6/6 466/6/6
f 466/6/6 463/6/6 467/6/6
f 464/6/6 465/6/6 468/6/6
f 468/6/6 465/6/6 469/6/6
f 470/6/6 471/6/6 474/6/6
f 474/6/6 471/6/6 475/6/6
f 472/6/6 473/6/6 476/6/6
f 476/6/6 473/6/6 477/6/6
f 474/4/6 475/4/6 478/4/6
f 478/4/6 475/4/6 479/4/6
f 476/4/6 477/4/6 480/4/6
f 480/4/6 477/4/6 481/4/6
f 478/6/6 479/6/6 482/6/6
f 482/6/6 479/6/6 483/6/6
f 480/6/6 481/6/6 484/6/6
f 484/6/6 481/6/6 485/6/6
f 486/6/6 487/6/6 490/6/6
f 490/6/6 487/6/6 491/6/6
f 488/6/6 489/6/6 492/6/6
f 492/6/6 489/6/6 493/6/6
f 490/4/6 491/4/6 494/4/6
f 494/4/6 491/4/6 495/4/6
f 492/4/6 493/4/6 496/4/6
f 496/4/6 493/4/6 497/4/6
f 494/6/6 495/6/6 498/6/6
f 498/6/6 495/6/6 499/6/6
f 496/6/6 497/6/6 500/6/6
f 500/6/6 497/6/6 501/6/6
f 502/6/6 503/6/6 506/6/6
f 506/6/6 503/6/6 507/6/6
f 504/6/6 505/6/6 508/6/6
f 508/6/6 505/6/6 509/6/6
f 506/4/6 507/4/6 510/4/6
f 510/4/6 507/4/6 511/4/6
f 508/4/6 509/4/6 512/4/6
f 512/4/6 509/4/6 513/4/6
f 510/6/6 511/6/6 514/6/6
f 514/6/6 511/6/6 515/6/6
f 512/6/6 513/6/6 516/6/6
f 516/6/6 513/6/6 517/6/6
f 518/6/6 519/6/6 522/6/6
f 522/6/6 519/6/6 523/6/6
f 520/6/6 521/6/6 524/6/6
f 524/6/6 521/6/6 525/6/6
f 522/4/6 523/4/6 526/4/6
f 526/4/6 523/4/6 527/4/6
f 524/4/6 525/4/6 528/4/6
f 528/4/6 525/4/6 529/4/6
f 526/6/6 527/6/6 530/6/6
f 530/6/6 527/6/6 531/6/6
f 528/6/6 529/6/6 532/6/6
f 532/6/6 529/6/6 533/6/6
f 534/6/6 535/6/6 538/6/6
f 538/6/6 535/6/6 539/6/6
f 536/6/6 537/6/6 540/6/6
f 540/6/6 537/6/6 541/6/6
f 538/4/6 539/4/6 542/4/6
f 542/4/6 539/4/6 543/4/6
f 540/4/6 541/4/6 544/4/6
f 544/4/6 541/4/6 545/4/6
f 542/6/6 543/6/6 546/6/6
f 546/6/6 543/6/6 547/6/6
f 544/6/6 545/6/6 548/6/6
f 548/6/6 545/6/6 549/6/6
f 550/6/6 551/6/6 554/6/6
f 554/6/6 551/6/6 555/6/6
f 552/6/6 553/6/6 556/6/6
f 556/6/6 553/6/6 557/6/6
f 556/4/6 557/4/6 558/4/6
f 558/4/6 557/4/6 559/4/6
f 554/4/6 555/4/6 560/4/6
f 560/4/6 555/4/6 561/4/6
f 560/6/6 561/6/6 562/6/6
f 562/6/6 561/6/6 563/6/6
f 564/6/6 565/6/6 568/6/6
f 568/6/6 565/6/6 569/6/6
f 566/6/6 567/6/6 570/6/6
f 570/6/6 567/6/6 571/6/6
f 570/4/6 571/4/6 572/4/6
f 572/4/6 571/4/6 573/4/6
f 568/4/6 569/4/6 574/4/6
f 574/4/6 569/4/6 575/4/6
f 574/6/6 575/6/6 576/6/6
f 576/6/6 575/6/6 577/6/6
f 578/6/6 579/6/6 582/6/6
f 582/6/6 579/6/6 583/6/6
f 580/6/6 581/6/6 584/6/6
f 584/6/6 581/6/6 585/6/6
f 584/4/6 585/4/6 586/4/6
f 586/4/6 585/4/6 587/4/6
f 582/4/6 583/4/6 588/4/6
f 588/4/6 583/4/6 589/4/6
f 588/6/6 589/6/6 590/6/6
f 590/6/6 589/6/6 591/6/6
f 592/6/6 593/6/6 596/6/6
f 596/6/6 593/6/6 597/6/6
f 594/6/6 595/6/6 598/6/6
f 598/6/6 595/6/6 599/6/6
f 598/4/6 599/4/6 600/4/6
f 596/4/6 597/4/6 601/4/6
f 601/4/6 597/4/6 602/4/6
f 598/4/6 600/4/6 603/4/6
f 603/4/6 600/4/6 604/4/6
f 601/6/6 602/6/6 605/6/6
f 605/6/6 602/6/6 606/6/6
f 603/6/6 604/6/6 607/6/6
f 607/6/6 604/6/6 608/6/6
f 609/6/6 610/6/6 613/6/6
f 613/6/6 610/6/6 614/6/6
f 611/6/6 612/6/6 615/6/6
f 615/6/6 612/6/6 616/6/6
f 613/4/6 614/4/6 617/4/6
f 617/4/6 614/4/6 618/4/6
f 615/4/6 616/4/6 619/4/6
f 619/4/6 616/4/6 620/4/6
f 617/6/6 618/6/6 621/6/6
f 621/6/6 618/6/6 622/6/6
f 619/6/6 620/6/6 623/6/6
f 623/6/6 620/6/6 624/6/6
f 625/6/6 626/6/6 627/6/6
f 627/6/6 626/6/6 628/6/6
f 627/4/6 628/4/6 629/4/6
f 629/4/6 628/4/6 630/4/6
f 629/6/6 630/6/6 631/6/6
f 631/6/6 630/6/6 632/6/6
f 633/2/6 634/2/6 635/2/6
f 635/2/6 634/2/6 636/2/6
f 633/2/6 635/2/6 637/2/6
f 635/5/6 636/5/6 637/5/6
f 636/2/6 634/2/6 638/2/6
f 637/5/6 636/5/6 638/5/6
f 633/2/6 637/2/6 639/2/6
f 637/2/6 638/2/6 639/2/6
f 638/2/6 634/2/6 640/2/6
f 639/2/6 638/2/6 640/2/6
